<svg width="87" height="107" viewBox="0 0 87 107" fill="none" xmlns="http://www.w3.org/2000/svg">
<path d="M21.3544 104.102C19.2644 102.709 17.4084 100.993 15.8555 99.0186C14.1626 96.972 12.5934 94.8193 11.1524 92.5915C7.76834 87.6416 5.1182 82.2281 3.28426 76.5194C1.07413 69.8801 0 63.5238 0 57.3045C0 50.3646 1.50289 44.3088 4.42912 39.2255C6.61111 35.2427 9.81528 31.9134 13.7117 29.5805C17.4872 27.2387 21.8234 25.9561 26.2653 25.8674C27.8124 25.8674 29.4921 26.0885 31.2602 26.5305C32.5421 26.8841 34.0892 27.4587 35.9899 28.166C38.421 29.0943 39.7471 29.6689 40.1891 29.8015C41.6036 30.3319 42.7971 30.5529 43.7254 30.5529C44.4326 30.5529 45.4493 30.3319 46.5764 29.9783C47.2174 29.7573 48.433 29.3595 50.1569 28.608C51.8631 27.9892 53.2157 27.4587 54.2898 27.0609C55.9253 26.5747 57.5078 26.1327 58.9311 25.9117C60.655 25.6464 62.3657 25.558 64.0056 25.6906C67.144 25.9117 70.0172 26.5747 72.5809 27.5472C77.0896 29.3595 80.7275 32.1884 83.4415 36.2109C82.2923 36.9181 81.2314 37.7403 80.2368 38.642C78.0842 40.5428 76.2586 42.7971 74.7999 45.2946C72.9042 48.6992 71.9234 52.537 71.9532 56.4337C72.0195 61.2208 73.2351 65.4289 75.6663 69.0756C77.4368 71.78 79.7449 74.0911 82.447 75.8652C83.8173 76.7934 85.0196 77.4344 86.16 77.8543C85.6296 79.5119 85.0461 81.1253 84.3698 82.7166C82.836 86.2838 81.0104 89.7006 78.8444 92.9274C76.9349 95.7122 75.432 97.7897 74.2916 99.16C72.5146 101.282 70.7996 102.873 69.0756 104.009C67.1749 105.269 64.9427 105.936 62.6574 105.936C61.1103 106.003 59.5632 105.804 58.0868 105.375C56.805 104.955 55.5408 104.482 54.3031 103.947C53.0062 103.354 51.6695 102.852 50.3027 102.444C48.6232 102.005 46.8935 101.787 45.1575 101.795C43.3894 101.795 41.6655 102.016 40.03 102.435C38.6597 102.824 37.3336 103.302 36.0208 103.872C34.1643 104.646 32.9487 105.154 32.2415 105.375C30.8165 105.797 29.3486 106.056 27.8654 106.148C25.5669 106.148 23.4275 105.485 21.2969 104.159L21.3544 104.102ZM51.6509 22.5036C48.6451 24.0065 45.7896 24.643 42.9297 24.4309C42.4877 21.5754 42.9297 18.6403 44.1232 15.4268C45.1841 12.6862 46.5985 10.2108 48.5435 8.0007C50.5768 5.70216 53.0079 3.80144 55.7485 2.43115C58.6659 0.928258 61.4507 0.132608 64.1028 0C64.4565 3.00579 64.1028 5.96737 62.9978 9.14997C61.9805 11.9771 60.4853 14.6085 58.5775 16.9297C56.6547 19.2282 54.2677 21.1289 51.5669 22.4992L51.6509 22.5036Z" fill="#323232"/>
</svg>
