<svg width="10000" height="10000" viewBox="0 0 10000 10000" fill="none" xmlns="http://www.w3.org/2000/svg">
<g clip-path="url(#clip0_3_14)">
<rect width="10000" height="10000" fill="#E50914"/>
<mask id="mask0_3_14" style="mask-type:alpha" maskUnits="userSpaceOnUse" x="0" y="8000" width="2000" height="2000">
<rect y="8000" width="2000" height="2000" fill="#D9D9D9"/>
</mask>
<g mask="url(#mask0_3_14)">
<path d="M1000 9833.33C776.389 9643.06 609.389 9466.31 499 9303.08C388.555 9139.92 333.333 8988.89 333.333 8850C333.333 8641.67 400.361 8475.69 534.417 8352.08C668.417 8228.47 823.611 8166.67 1000 8166.67C1176.39 8166.67 1331.58 8228.47 1465.58 8352.08C1599.64 8475.69 1666.67 8641.67 1666.67 8850L1841.67 8675L1958.33 8791.67L1583.33 9166.67L1208.33 8791.67L1325 8675L1500 8850C1500 8698.61 1451.72 8574.64 1355.17 8478.08C1258.67 8381.58 1140.28 8333.33 1000 8333.33C859.722 8333.33 741.305 8381.58 644.75 8478.08C548.25 8574.64 500 8698.61 500 8850C500 8948.61 540.972 9061.44 622.917 9188.5C704.861 9315.61 830.555 9456.94 1000 9612.5C1027.78 9587.5 1053.47 9563.19 1077.08 9539.58L1147.92 9468.75C1140.97 9454.86 1135.42 9439.92 1131.25 9423.92C1127.08 9407.97 1125 9391.67 1125 9375C1125 9316.67 1145.14 9267.36 1185.42 9227.08C1225.69 9186.81 1275 9166.67 1333.33 9166.67C1391.67 9166.67 1440.97 9186.81 1481.25 9227.08C1521.53 9267.36 1541.67 9316.67 1541.67 9375C1541.67 9433.33 1521.53 9482.64 1481.25 9522.92C1440.97 9563.19 1391.67 9583.33 1333.33 9583.33C1322.22 9583.33 1312.17 9582.64 1303.17 9581.25C1294.11 9579.86 1284.72 9577.78 1275 9575C1234.72 9616.67 1192.03 9659.03 1146.92 9702.08C1101.75 9745.14 1052.78 9788.89 1000 9833.33Z" fill="#DB0914"/>
</g>
<mask id="mask1_3_14" style="mask-type:alpha" maskUnits="userSpaceOnUse" x="8000" y="8000" width="2000" height="2000">
<rect x="8000" y="8000" width="2000" height="2000" fill="#D9D9D9"/>
</mask>
<g mask="url(#mask1_3_14)">
<path d="M9000 9833.33C8776.39 9643.06 8609.39 9466.31 8499 9303.08C8388.56 9139.92 8333.33 8988.89 8333.33 8850C8333.33 8641.67 8400.36 8475.69 8534.42 8352.08C8668.42 8228.47 8823.61 8166.67 9000 8166.67C9176.39 8166.67 9331.58 8228.47 9465.58 8352.08C9599.64 8475.69 9666.67 8641.67 9666.67 8850L9841.67 8675L9958.33 8791.67L9583.33 9166.67L9208.33 8791.67L9325 8675L9500 8850C9500 8698.61 9451.72 8574.64 9355.17 8478.08C9258.67 8381.58 9140.28 8333.33 9000 8333.33C8859.72 8333.33 8741.31 8381.58 8644.75 8478.08C8548.25 8574.64 8500 8698.61 8500 8850C8500 8948.61 8540.97 9061.44 8622.92 9188.5C8704.86 9315.61 8830.56 9456.94 9000 9612.5C9027.78 9587.5 9053.47 9563.19 9077.08 9539.58L9147.92 9468.75C9140.97 9454.86 9135.42 9439.92 9131.25 9423.92C9127.08 9407.97 9125 9391.67 9125 9375C9125 9316.67 9145.14 9267.36 9185.42 9227.08C9225.69 9186.81 9275 9166.67 9333.33 9166.67C9391.67 9166.67 9440.97 9186.81 9481.25 9227.08C9521.53 9267.36 9541.67 9316.67 9541.67 9375C9541.67 9433.33 9521.53 9482.64 9481.25 9522.92C9440.97 9563.19 9391.67 9583.33 9333.33 9583.33C9322.22 9583.33 9312.17 9582.64 9303.17 9581.25C9294.11 9579.86 9284.72 9577.78 9275 9575C9234.72 9616.67 9192.03 9659.03 9146.92 9702.08C9101.75 9745.14 9052.78 9788.89 9000 9833.33Z" fill="#DB0914"/>
</g>
<mask id="mask2_3_14" style="mask-type:alpha" maskUnits="userSpaceOnUse" x="6000" y="8000" width="2000" height="2000">
<rect x="6000" y="8000" width="2000" height="2000" fill="#D9D9D9"/>
</mask>
<g mask="url(#mask2_3_14)">
<path d="M7000 9833.33C6776.39 9643.06 6609.39 9466.31 6499 9303.08C6388.56 9139.92 6333.33 8988.89 6333.33 8850C6333.33 8641.67 6400.36 8475.69 6534.42 8352.08C6668.42 8228.47 6823.61 8166.67 7000 8166.67C7176.39 8166.67 7331.58 8228.47 7465.58 8352.08C7599.64 8475.69 7666.67 8641.67 7666.67 8850L7841.67 8675L7958.33 8791.67L7583.33 9166.67L7208.33 8791.67L7325 8675L7500 8850C7500 8698.61 7451.72 8574.64 7355.17 8478.08C7258.67 8381.58 7140.28 8333.33 7000 8333.33C6859.72 8333.33 6741.31 8381.58 6644.75 8478.08C6548.25 8574.64 6500 8698.61 6500 8850C6500 8948.61 6540.97 9061.44 6622.92 9188.5C6704.86 9315.61 6830.56 9456.94 7000 9612.5C7027.78 9587.5 7053.47 9563.19 7077.08 9539.58L7147.92 9468.75C7140.97 9454.86 7135.42 9439.92 7131.25 9423.92C7127.08 9407.97 7125 9391.67 7125 9375C7125 9316.67 7145.14 9267.36 7185.42 9227.08C7225.69 9186.81 7275 9166.67 7333.33 9166.67C7391.67 9166.67 7440.97 9186.81 7481.25 9227.08C7521.53 9267.36 7541.67 9316.67 7541.67 9375C7541.67 9433.33 7521.53 9482.64 7481.25 9522.92C7440.97 9563.19 7391.67 9583.33 7333.33 9583.33C7322.22 9583.33 7312.17 9582.64 7303.17 9581.25C7294.11 9579.86 7284.72 9577.78 7275 9575C7234.72 9616.67 7192.03 9659.03 7146.92 9702.08C7101.75 9745.14 7052.78 9788.89 7000 9833.33Z" fill="#DB0914"/>
</g>
<mask id="mask3_3_14" style="mask-type:alpha" maskUnits="userSpaceOnUse" x="4000" y="8000" width="2000" height="2000">
<rect x="4000" y="8000" width="2000" height="2000" fill="#D9D9D9"/>
</mask>
<g mask="url(#mask3_3_14)">
<path d="M5000 9833.33C4776.39 9643.06 4609.39 9466.31 4499 9303.08C4388.56 9139.92 4333.33 8988.89 4333.33 8850C4333.33 8641.67 4400.36 8475.69 4534.42 8352.08C4668.42 8228.47 4823.61 8166.67 5000 8166.67C5176.39 8166.67 5331.58 8228.47 5465.58 8352.08C5599.64 8475.69 5666.67 8641.67 5666.67 8850L5841.67 8675L5958.33 8791.67L5583.33 9166.67L5208.33 8791.67L5325 8675L5500 8850C5500 8698.61 5451.72 8574.64 5355.17 8478.08C5258.67 8381.58 5140.28 8333.33 5000 8333.33C4859.72 8333.33 4741.31 8381.58 4644.75 8478.08C4548.25 8574.64 4500 8698.61 4500 8850C4500 8948.61 4540.97 9061.44 4622.92 9188.5C4704.86 9315.61 4830.56 9456.94 5000 9612.5C5027.78 9587.5 5053.47 9563.19 5077.08 9539.58L5147.92 9468.75C5140.97 9454.86 5135.42 9439.92 5131.25 9423.92C5127.08 9407.97 5125 9391.67 5125 9375C5125 9316.67 5145.14 9267.36 5185.42 9227.08C5225.69 9186.81 5275 9166.67 5333.33 9166.67C5391.67 9166.67 5440.97 9186.81 5481.25 9227.08C5521.53 9267.36 5541.67 9316.67 5541.67 9375C5541.67 9433.33 5521.53 9482.64 5481.25 9522.92C5440.97 9563.19 5391.67 9583.33 5333.33 9583.33C5322.22 9583.33 5312.17 9582.64 5303.17 9581.25C5294.11 9579.86 5284.72 9577.78 5275 9575C5234.72 9616.67 5192.03 9659.03 5146.92 9702.08C5101.75 9745.14 5052.78 9788.89 5000 9833.33Z" fill="#DB0914"/>
</g>
<mask id="mask4_3_14" style="mask-type:alpha" maskUnits="userSpaceOnUse" x="2000" y="8000" width="2000" height="2000">
<rect x="2000" y="8000" width="2000" height="2000" fill="#D9D9D9"/>
</mask>
<g mask="url(#mask4_3_14)">
<path d="M3000 9833.33C2776.39 9643.06 2609.39 9466.31 2499 9303.08C2388.56 9139.92 2333.33 8988.89 2333.33 8850C2333.33 8641.67 2400.36 8475.69 2534.42 8352.08C2668.42 8228.47 2823.61 8166.67 3000 8166.67C3176.39 8166.67 3331.58 8228.47 3465.58 8352.08C3599.64 8475.69 3666.67 8641.67 3666.67 8850L3841.67 8675L3958.33 8791.67L3583.33 9166.67L3208.33 8791.67L3325 8675L3500 8850C3500 8698.61 3451.72 8574.64 3355.17 8478.08C3258.67 8381.58 3140.28 8333.33 3000 8333.33C2859.72 8333.33 2741.31 8381.58 2644.75 8478.08C2548.25 8574.64 2500 8698.61 2500 8850C2500 8948.61 2540.97 9061.44 2622.92 9188.5C2704.86 9315.61 2830.56 9456.94 3000 9612.5C3027.78 9587.5 3053.47 9563.19 3077.08 9539.58L3147.92 9468.75C3140.97 9454.86 3135.42 9439.92 3131.25 9423.92C3127.08 9407.97 3125 9391.67 3125 9375C3125 9316.67 3145.14 9267.36 3185.42 9227.08C3225.69 9186.81 3275 9166.67 3333.33 9166.67C3391.67 9166.67 3440.97 9186.81 3481.25 9227.08C3521.53 9267.36 3541.67 9316.67 3541.67 9375C3541.67 9433.33 3521.53 9482.64 3481.25 9522.92C3440.97 9563.19 3391.67 9583.33 3333.33 9583.33C3322.22 9583.33 3312.17 9582.64 3303.17 9581.25C3294.11 9579.86 3284.72 9577.78 3275 9575C3234.72 9616.67 3192.03 9659.03 3146.92 9702.08C3101.75 9745.14 3052.78 9788.89 3000 9833.33Z" fill="#DB0914"/>
</g>
<mask id="mask5_3_14" style="mask-type:alpha" maskUnits="userSpaceOnUse" x="-500" y="7500" width="1000" height="1000">
<rect x="-500" y="7500" width="1000" height="1000" fill="#D9D9D9"/>
</mask>
<g mask="url(#mask5_3_14)">
<path d="M0.000335693 8416.67C-111.805 8321.53 -195.305 8233.15 -250.5 8151.54C-305.722 8069.96 -333.333 7994.44 -333.333 7925C-333.333 7820.83 -299.819 7737.85 -232.791 7676.04C-165.791 7614.24 -88.1941 7583.33 0.000335693 7583.33C88.1948 7583.33 165.792 7614.24 232.792 7676.04C299.82 7737.85 333.334 7820.83 333.334 7925L420.834 7837.5L479.167 7895.83L291.667 8083.33L104.167 7895.83L162.5 7837.5L250 7925C250 7849.31 225.861 7787.32 177.584 7739.04C129.334 7690.79 70.1392 7666.67 0.000335693 7666.67C-70.1386 7666.67 -129.347 7690.79 -177.625 7739.04C-225.875 7787.32 -250 7849.31 -250 7925C-250 7974.31 -229.514 8030.72 -188.541 8094.25C-147.569 8157.81 -84.7219 8228.47 0.000335693 8306.25C13.8892 8293.75 26.7365 8281.6 38.542 8269.79L73.9587 8234.37C70.4864 8227.43 67.7087 8219.96 65.6253 8211.96C63.542 8203.99 62.5003 8195.83 62.5003 8187.5C62.5003 8158.33 72.5698 8133.68 92.7087 8113.54C112.848 8093.4 137.5 8083.33 166.667 8083.33C195.834 8083.33 220.486 8093.4 240.625 8113.54C260.764 8133.68 270.834 8158.33 270.834 8187.5C270.834 8216.67 260.764 8241.32 240.625 8261.46C220.486 8281.6 195.834 8291.67 166.667 8291.67C161.111 8291.67 156.084 8291.32 151.584 8290.62C147.056 8289.93 142.361 8288.89 137.5 8287.5C117.361 8308.33 96.0142 8329.51 73.4587 8351.04C50.8753 8372.57 26.3892 8394.44 0.000335693 8416.67Z" fill="#DB0914"/>
</g>
<mask id="mask6_3_14" style="mask-type:alpha" maskUnits="userSpaceOnUse" x="9500" y="7500" width="1000" height="1000">
<rect x="9500" y="7500" width="1000" height="1000" fill="#D9D9D9"/>
</mask>
<g mask="url(#mask6_3_14)">
<path d="M10000 8416.67C9888.19 8321.53 9804.69 8233.15 9749.5 8151.54C9694.28 8069.96 9666.67 7994.44 9666.67 7925C9666.67 7820.83 9700.18 7737.85 9767.21 7676.04C9834.21 7614.24 9911.81 7583.33 10000 7583.33C10088.2 7583.33 10165.8 7614.24 10232.8 7676.04C10299.8 7737.85 10333.3 7820.83 10333.3 7925L10420.8 7837.5L10479.2 7895.83L10291.7 8083.33L10104.2 7895.83L10162.5 7837.5L10250 7925C10250 7849.31 10225.9 7787.32 10177.6 7739.04C10129.3 7690.79 10070.1 7666.67 10000 7666.67C9929.86 7666.67 9870.65 7690.79 9822.38 7739.04C9774.13 7787.32 9750 7849.31 9750 7925C9750 7974.31 9770.49 8030.72 9811.46 8094.25C9852.43 8157.81 9915.28 8228.47 10000 8306.25C10013.9 8293.75 10026.7 8281.6 10038.5 8269.79L10074 8234.37C10070.5 8227.43 10067.7 8219.96 10065.6 8211.96C10063.5 8203.99 10062.5 8195.83 10062.5 8187.5C10062.5 8158.33 10072.6 8133.68 10092.7 8113.54C10112.8 8093.4 10137.5 8083.33 10166.7 8083.33C10195.8 8083.33 10220.5 8093.4 10240.6 8113.54C10260.8 8133.68 10270.8 8158.33 10270.8 8187.5C10270.8 8216.67 10260.8 8241.32 10240.6 8261.46C10220.5 8281.6 10195.8 8291.67 10166.7 8291.67C10161.1 8291.67 10156.1 8291.32 10151.6 8290.62C10147.1 8289.93 10142.4 8288.89 10137.5 8287.5C10117.4 8308.33 10096 8329.51 10073.5 8351.04C10050.9 8372.57 10026.4 8394.44 10000 8416.67Z" fill="#DB0914"/>
</g>
<mask id="mask7_3_14" style="mask-type:alpha" maskUnits="userSpaceOnUse" x="7500" y="7500" width="1000" height="1000">
<rect x="7500" y="7500" width="1000" height="1000" fill="#D9D9D9"/>
</mask>
<g mask="url(#mask7_3_14)">
<path d="M8000 8416.67C7888.19 8321.53 7804.69 8233.15 7749.5 8151.54C7694.28 8069.96 7666.67 7994.44 7666.67 7925C7666.67 7820.83 7700.18 7737.85 7767.21 7676.04C7834.21 7614.24 7911.81 7583.33 8000 7583.33C8088.19 7583.33 8165.79 7614.24 8232.79 7676.04C8299.82 7737.85 8333.33 7820.83 8333.33 7925L8420.83 7837.5L8479.17 7895.83L8291.67 8083.33L8104.17 7895.83L8162.5 7837.5L8250 7925C8250 7849.31 8225.86 7787.32 8177.58 7739.04C8129.33 7690.79 8070.14 7666.67 8000 7666.67C7929.86 7666.67 7870.65 7690.79 7822.38 7739.04C7774.13 7787.32 7750 7849.31 7750 7925C7750 7974.31 7770.49 8030.72 7811.46 8094.25C7852.43 8157.81 7915.28 8228.47 8000 8306.25C8013.89 8293.75 8026.74 8281.6 8038.54 8269.79L8073.96 8234.37C8070.49 8227.43 8067.71 8219.96 8065.63 8211.96C8063.54 8203.99 8062.5 8195.83 8062.5 8187.5C8062.5 8158.33 8072.57 8133.68 8092.71 8113.54C8112.85 8093.4 8137.5 8083.33 8166.67 8083.33C8195.83 8083.33 8220.49 8093.4 8240.63 8113.54C8260.76 8133.68 8270.83 8158.33 8270.83 8187.5C8270.83 8216.67 8260.76 8241.32 8240.63 8261.46C8220.49 8281.6 8195.83 8291.67 8166.67 8291.67C8161.11 8291.67 8156.08 8291.32 8151.58 8290.62C8147.06 8289.93 8142.36 8288.89 8137.5 8287.5C8117.36 8308.33 8096.01 8329.51 8073.46 8351.04C8050.88 8372.57 8026.39 8394.44 8000 8416.67Z" fill="#DB0914"/>
</g>
<mask id="mask8_3_14" style="mask-type:alpha" maskUnits="userSpaceOnUse" x="5500" y="7500" width="1000" height="1000">
<rect x="5500" y="7500" width="1000" height="1000" fill="#D9D9D9"/>
</mask>
<g mask="url(#mask8_3_14)">
<path d="M6000 8416.67C5888.19 8321.53 5804.69 8233.15 5749.5 8151.54C5694.28 8069.96 5666.67 7994.44 5666.67 7925C5666.67 7820.83 5700.18 7737.85 5767.21 7676.04C5834.21 7614.24 5911.81 7583.33 6000 7583.33C6088.19 7583.33 6165.79 7614.24 6232.79 7676.04C6299.82 7737.85 6333.33 7820.83 6333.33 7925L6420.83 7837.5L6479.17 7895.83L6291.67 8083.33L6104.17 7895.83L6162.5 7837.5L6250 7925C6250 7849.31 6225.86 7787.32 6177.58 7739.04C6129.33 7690.79 6070.14 7666.67 6000 7666.67C5929.86 7666.67 5870.65 7690.79 5822.38 7739.04C5774.13 7787.32 5750 7849.31 5750 7925C5750 7974.31 5770.49 8030.72 5811.46 8094.25C5852.43 8157.81 5915.28 8228.47 6000 8306.25C6013.89 8293.75 6026.74 8281.6 6038.54 8269.79L6073.96 8234.37C6070.49 8227.43 6067.71 8219.96 6065.63 8211.96C6063.54 8203.99 6062.5 8195.83 6062.5 8187.5C6062.5 8158.33 6072.57 8133.68 6092.71 8113.54C6112.85 8093.4 6137.5 8083.33 6166.67 8083.33C6195.83 8083.33 6220.49 8093.4 6240.63 8113.54C6260.76 8133.68 6270.83 8158.33 6270.83 8187.5C6270.83 8216.67 6260.76 8241.32 6240.63 8261.46C6220.49 8281.6 6195.83 8291.67 6166.67 8291.67C6161.11 8291.67 6156.08 8291.32 6151.58 8290.62C6147.06 8289.93 6142.36 8288.89 6137.5 8287.5C6117.36 8308.33 6096.01 8329.51 6073.46 8351.04C6050.88 8372.57 6026.39 8394.44 6000 8416.67Z" fill="#DB0914"/>
</g>
<mask id="mask9_3_14" style="mask-type:alpha" maskUnits="userSpaceOnUse" x="3500" y="7500" width="1000" height="1000">
<rect x="3500" y="7500" width="1000" height="1000" fill="#D9D9D9"/>
</mask>
<g mask="url(#mask9_3_14)">
<path d="M4000 8416.67C3888.19 8321.53 3804.69 8233.15 3749.5 8151.54C3694.28 8069.96 3666.67 7994.44 3666.67 7925C3666.67 7820.83 3700.18 7737.85 3767.21 7676.04C3834.21 7614.24 3911.81 7583.33 4000 7583.33C4088.19 7583.33 4165.79 7614.24 4232.79 7676.04C4299.82 7737.85 4333.33 7820.83 4333.33 7925L4420.83 7837.5L4479.17 7895.83L4291.67 8083.33L4104.17 7895.83L4162.5 7837.5L4250 7925C4250 7849.31 4225.86 7787.32 4177.58 7739.04C4129.33 7690.79 4070.14 7666.67 4000 7666.67C3929.86 7666.67 3870.65 7690.79 3822.38 7739.04C3774.13 7787.32 3750 7849.31 3750 7925C3750 7974.31 3770.49 8030.72 3811.46 8094.25C3852.43 8157.81 3915.28 8228.47 4000 8306.25C4013.89 8293.75 4026.74 8281.6 4038.54 8269.79L4073.96 8234.37C4070.49 8227.43 4067.71 8219.96 4065.63 8211.96C4063.54 8203.99 4062.5 8195.83 4062.5 8187.5C4062.5 8158.33 4072.57 8133.68 4092.71 8113.54C4112.85 8093.4 4137.5 8083.33 4166.67 8083.33C4195.83 8083.33 4220.49 8093.4 4240.63 8113.54C4260.76 8133.68 4270.83 8158.33 4270.83 8187.5C4270.83 8216.67 4260.76 8241.32 4240.63 8261.46C4220.49 8281.6 4195.83 8291.67 4166.67 8291.67C4161.11 8291.67 4156.08 8291.32 4151.58 8290.62C4147.06 8289.93 4142.36 8288.89 4137.5 8287.5C4117.36 8308.33 4096.01 8329.51 4073.46 8351.04C4050.88 8372.57 4026.39 8394.44 4000 8416.67Z" fill="#DB0914"/>
</g>
<mask id="mask10_3_14" style="mask-type:alpha" maskUnits="userSpaceOnUse" x="1500" y="7500" width="1000" height="1000">
<rect x="1500" y="7500" width="1000" height="1000" fill="#D9D9D9"/>
</mask>
<g mask="url(#mask10_3_14)">
<path d="M2000 8416.67C1888.19 8321.53 1804.69 8233.15 1749.5 8151.54C1694.28 8069.96 1666.67 7994.44 1666.67 7925C1666.67 7820.83 1700.18 7737.85 1767.21 7676.04C1834.21 7614.24 1911.81 7583.33 2000 7583.33C2088.19 7583.33 2165.79 7614.24 2232.79 7676.04C2299.82 7737.85 2333.33 7820.83 2333.33 7925L2420.83 7837.5L2479.17 7895.83L2291.67 8083.33L2104.17 7895.83L2162.5 7837.5L2250 7925C2250 7849.31 2225.86 7787.32 2177.58 7739.04C2129.33 7690.79 2070.14 7666.67 2000 7666.67C1929.86 7666.67 1870.65 7690.79 1822.38 7739.04C1774.13 7787.32 1750 7849.31 1750 7925C1750 7974.31 1770.49 8030.72 1811.46 8094.25C1852.43 8157.81 1915.28 8228.47 2000 8306.25C2013.89 8293.75 2026.74 8281.6 2038.54 8269.79L2073.96 8234.37C2070.49 8227.43 2067.71 8219.96 2065.63 8211.96C2063.54 8203.99 2062.5 8195.83 2062.5 8187.5C2062.5 8158.33 2072.57 8133.68 2092.71 8113.54C2112.85 8093.4 2137.5 8083.33 2166.67 8083.33C2195.83 8083.33 2220.49 8093.4 2240.63 8113.54C2260.76 8133.68 2270.83 8158.33 2270.83 8187.5C2270.83 8216.67 2260.76 8241.32 2240.63 8261.46C2220.49 8281.6 2195.83 8291.67 2166.67 8291.67C2161.11 8291.67 2156.08 8291.32 2151.58 8290.62C2147.06 8289.93 2142.36 8288.89 2137.5 8287.5C2117.36 8308.33 2096.01 8329.51 2073.46 8351.04C2050.88 8372.57 2026.39 8394.44 2000 8416.67Z" fill="#DB0914"/>
</g>
<mask id="mask11_3_14" style="mask-type:alpha" maskUnits="userSpaceOnUse" x="0" y="2959" width="2000" height="2000">
<rect y="2959" width="2000" height="2000" fill="#D9D9D9"/>
</mask>
<g mask="url(#mask11_3_14)">
<path d="M1000 4792.33C776.389 4602.06 609.389 4425.31 499 4262.08C388.555 4098.92 333.333 3947.89 333.333 3809C333.333 3600.67 400.361 3434.69 534.417 3311.08C668.417 3187.47 823.611 3125.67 1000 3125.67C1176.39 3125.67 1331.58 3187.47 1465.58 3311.08C1599.64 3434.69 1666.67 3600.67 1666.67 3809L1841.67 3634L1958.33 3750.67L1583.33 4125.67L1208.33 3750.67L1325 3634L1500 3809C1500 3657.61 1451.72 3533.64 1355.17 3437.08C1258.67 3340.58 1140.28 3292.33 1000 3292.33C859.722 3292.33 741.305 3340.58 644.75 3437.08C548.25 3533.64 500 3657.61 500 3809C500 3907.61 540.972 4020.44 622.917 4147.5C704.861 4274.61 830.555 4415.94 1000 4571.5C1027.78 4546.5 1053.47 4522.19 1077.08 4498.58L1147.92 4427.75C1140.97 4413.86 1135.42 4398.92 1131.25 4382.92C1127.08 4366.97 1125 4350.67 1125 4334C1125 4275.67 1145.14 4226.36 1185.42 4186.08C1225.69 4145.81 1275 4125.67 1333.33 4125.67C1391.67 4125.67 1440.97 4145.81 1481.25 4186.08C1521.53 4226.36 1541.67 4275.67 1541.67 4334C1541.67 4392.33 1521.53 4441.64 1481.25 4481.92C1440.97 4522.19 1391.67 4542.33 1333.33 4542.33C1322.22 4542.33 1312.17 4541.64 1303.17 4540.25C1294.11 4538.86 1284.72 4536.78 1275 4534C1234.72 4575.67 1192.03 4618.03 1146.92 4661.08C1101.75 4704.14 1052.78 4747.89 1000 4792.33Z" fill="#DB0914"/>
</g>
<mask id="mask12_3_14" style="mask-type:alpha" maskUnits="userSpaceOnUse" x="8000" y="2959" width="2000" height="2000">
<rect x="8000" y="2959" width="2000" height="2000" fill="#D9D9D9"/>
</mask>
<g mask="url(#mask12_3_14)">
<path d="M9000 4792.33C8776.39 4602.06 8609.39 4425.31 8499 4262.08C8388.56 4098.92 8333.33 3947.89 8333.33 3809C8333.33 3600.67 8400.36 3434.69 8534.42 3311.08C8668.42 3187.47 8823.61 3125.67 9000 3125.67C9176.39 3125.67 9331.58 3187.47 9465.58 3311.08C9599.64 3434.69 9666.67 3600.67 9666.67 3809L9841.67 3634L9958.33 3750.67L9583.33 4125.67L9208.33 3750.67L9325 3634L9500 3809C9500 3657.61 9451.72 3533.64 9355.17 3437.08C9258.67 3340.58 9140.28 3292.33 9000 3292.33C8859.72 3292.33 8741.31 3340.58 8644.75 3437.08C8548.25 3533.64 8500 3657.61 8500 3809C8500 3907.61 8540.97 4020.44 8622.92 4147.5C8704.86 4274.61 8830.56 4415.94 9000 4571.5C9027.78 4546.5 9053.47 4522.19 9077.08 4498.58L9147.92 4427.75C9140.97 4413.86 9135.42 4398.92 9131.25 4382.92C9127.08 4366.97 9125 4350.67 9125 4334C9125 4275.67 9145.14 4226.36 9185.42 4186.08C9225.69 4145.81 9275 4125.67 9333.33 4125.67C9391.67 4125.67 9440.97 4145.81 9481.25 4186.08C9521.53 4226.36 9541.67 4275.67 9541.67 4334C9541.67 4392.33 9521.53 4441.64 9481.25 4481.92C9440.97 4522.19 9391.67 4542.33 9333.33 4542.33C9322.22 4542.33 9312.17 4541.64 9303.17 4540.25C9294.11 4538.86 9284.72 4536.78 9275 4534C9234.72 4575.67 9192.03 4618.03 9146.92 4661.08C9101.75 4704.14 9052.78 4747.89 9000 4792.33Z" fill="#DB0914"/>
</g>
<mask id="mask13_3_14" style="mask-type:alpha" maskUnits="userSpaceOnUse" x="6000" y="2959" width="2000" height="2000">
<rect x="6000" y="2959" width="2000" height="2000" fill="#D9D9D9"/>
</mask>
<g mask="url(#mask13_3_14)">
<path d="M7000 4792.33C6776.39 4602.06 6609.39 4425.31 6499 4262.08C6388.56 4098.92 6333.33 3947.89 6333.33 3809C6333.33 3600.67 6400.36 3434.69 6534.42 3311.08C6668.42 3187.47 6823.61 3125.67 7000 3125.67C7176.39 3125.67 7331.58 3187.47 7465.58 3311.08C7599.64 3434.69 7666.67 3600.67 7666.67 3809L7841.67 3634L7958.33 3750.67L7583.33 4125.67L7208.33 3750.67L7325 3634L7500 3809C7500 3657.61 7451.72 3533.64 7355.17 3437.08C7258.67 3340.58 7140.28 3292.33 7000 3292.33C6859.72 3292.33 6741.31 3340.58 6644.75 3437.08C6548.25 3533.64 6500 3657.61 6500 3809C6500 3907.61 6540.97 4020.44 6622.92 4147.5C6704.86 4274.61 6830.56 4415.94 7000 4571.5C7027.78 4546.5 7053.47 4522.19 7077.08 4498.58L7147.92 4427.75C7140.97 4413.86 7135.42 4398.92 7131.25 4382.92C7127.08 4366.97 7125 4350.67 7125 4334C7125 4275.67 7145.14 4226.36 7185.42 4186.08C7225.69 4145.81 7275 4125.67 7333.33 4125.67C7391.67 4125.67 7440.97 4145.81 7481.25 4186.08C7521.53 4226.36 7541.67 4275.67 7541.67 4334C7541.67 4392.33 7521.53 4441.64 7481.25 4481.92C7440.97 4522.19 7391.67 4542.33 7333.33 4542.33C7322.22 4542.33 7312.17 4541.64 7303.17 4540.25C7294.11 4538.86 7284.72 4536.78 7275 4534C7234.72 4575.67 7192.03 4618.03 7146.92 4661.08C7101.75 4704.14 7052.78 4747.89 7000 4792.33Z" fill="#DB0914"/>
</g>
<mask id="mask14_3_14" style="mask-type:alpha" maskUnits="userSpaceOnUse" x="4000" y="2959" width="2000" height="2000">
<rect x="4000" y="2959" width="2000" height="2000" fill="#D9D9D9"/>
</mask>
<g mask="url(#mask14_3_14)">
<path d="M5000 4792.33C4776.39 4602.06 4609.39 4425.31 4499 4262.08C4388.56 4098.92 4333.33 3947.89 4333.33 3809C4333.33 3600.67 4400.36 3434.69 4534.42 3311.08C4668.42 3187.47 4823.61 3125.67 5000 3125.67C5176.39 3125.67 5331.58 3187.47 5465.58 3311.08C5599.64 3434.69 5666.67 3600.67 5666.67 3809L5841.67 3634L5958.33 3750.67L5583.33 4125.67L5208.33 3750.67L5325 3634L5500 3809C5500 3657.61 5451.72 3533.64 5355.17 3437.08C5258.67 3340.58 5140.28 3292.33 5000 3292.33C4859.72 3292.33 4741.31 3340.58 4644.75 3437.08C4548.25 3533.64 4500 3657.61 4500 3809C4500 3907.61 4540.97 4020.44 4622.92 4147.5C4704.86 4274.61 4830.56 4415.94 5000 4571.5C5027.78 4546.5 5053.47 4522.19 5077.08 4498.58L5147.92 4427.75C5140.97 4413.86 5135.42 4398.92 5131.25 4382.92C5127.08 4366.97 5125 4350.67 5125 4334C5125 4275.67 5145.14 4226.36 5185.42 4186.08C5225.69 4145.81 5275 4125.67 5333.33 4125.67C5391.67 4125.67 5440.97 4145.81 5481.25 4186.08C5521.53 4226.36 5541.67 4275.67 5541.67 4334C5541.67 4392.33 5521.53 4441.64 5481.25 4481.92C5440.97 4522.19 5391.67 4542.33 5333.33 4542.33C5322.22 4542.33 5312.17 4541.64 5303.17 4540.25C5294.11 4538.86 5284.72 4536.78 5275 4534C5234.72 4575.67 5192.03 4618.03 5146.92 4661.08C5101.75 4704.14 5052.78 4747.89 5000 4792.33Z" fill="#DB0914"/>
</g>
<mask id="mask15_3_14" style="mask-type:alpha" maskUnits="userSpaceOnUse" x="2000" y="2959" width="2000" height="2000">
<rect x="2000" y="2959" width="2000" height="2000" fill="#D9D9D9"/>
</mask>
<g mask="url(#mask15_3_14)">
<path d="M3000 4792.33C2776.39 4602.06 2609.39 4425.31 2499 4262.08C2388.56 4098.92 2333.33 3947.89 2333.33 3809C2333.33 3600.67 2400.36 3434.69 2534.42 3311.08C2668.42 3187.47 2823.61 3125.67 3000 3125.67C3176.39 3125.67 3331.58 3187.47 3465.58 3311.08C3599.64 3434.69 3666.67 3600.67 3666.67 3809L3841.67 3634L3958.33 3750.67L3583.33 4125.67L3208.33 3750.67L3325 3634L3500 3809C3500 3657.61 3451.72 3533.64 3355.17 3437.08C3258.67 3340.58 3140.28 3292.33 3000 3292.33C2859.72 3292.33 2741.31 3340.58 2644.75 3437.08C2548.25 3533.64 2500 3657.61 2500 3809C2500 3907.61 2540.97 4020.44 2622.92 4147.5C2704.86 4274.61 2830.56 4415.94 3000 4571.5C3027.78 4546.5 3053.47 4522.19 3077.08 4498.58L3147.92 4427.75C3140.97 4413.86 3135.42 4398.92 3131.25 4382.92C3127.08 4366.97 3125 4350.67 3125 4334C3125 4275.67 3145.14 4226.36 3185.42 4186.08C3225.69 4145.81 3275 4125.67 3333.33 4125.67C3391.67 4125.67 3440.97 4145.81 3481.25 4186.08C3521.53 4226.36 3541.67 4275.67 3541.67 4334C3541.67 4392.33 3521.53 4441.64 3481.25 4481.92C3440.97 4522.19 3391.67 4542.33 3333.33 4542.33C3322.22 4542.33 3312.17 4541.64 3303.17 4540.25C3294.11 4538.86 3284.72 4536.78 3275 4534C3234.72 4575.67 3192.03 4618.03 3146.92 4661.08C3101.75 4704.14 3052.78 4747.89 3000 4792.33Z" fill="#DB0914"/>
</g>
<mask id="mask16_3_14" style="mask-type:alpha" maskUnits="userSpaceOnUse" x="-500" y="2377" width="1000" height="1000">
<rect x="-500" y="2377" width="1000" height="1000" fill="#D9D9D9"/>
</mask>
<g mask="url(#mask16_3_14)">
<path d="M0.000335693 3293.67C-111.805 3198.53 -195.305 3110.15 -250.5 3028.54C-305.722 2946.96 -333.333 2871.44 -333.333 2802C-333.333 2697.83 -299.819 2614.85 -232.791 2553.04C-165.791 2491.24 -88.1941 2460.33 0.000335693 2460.33C88.1948 2460.33 165.792 2491.24 232.792 2553.04C299.82 2614.85 333.334 2697.83 333.334 2802L420.834 2714.5L479.167 2772.83L291.667 2960.33L104.167 2772.83L162.5 2714.5L250 2802C250 2726.31 225.861 2664.32 177.584 2616.04C129.334 2567.79 70.1392 2543.67 0.000335693 2543.67C-70.1386 2543.67 -129.347 2567.79 -177.625 2616.04C-225.875 2664.32 -250 2726.31 -250 2802C-250 2851.31 -229.514 2907.72 -188.541 2971.25C-147.569 3034.81 -84.7219 3105.47 0.000335693 3183.25C13.8892 3170.75 26.7365 3158.6 38.542 3146.79L73.9587 3111.37C70.4864 3104.43 67.7087 3096.96 65.6253 3088.96C63.542 3080.99 62.5003 3072.83 62.5003 3064.5C62.5003 3035.33 72.5698 3010.68 92.7087 2990.54C112.848 2970.4 137.5 2960.33 166.667 2960.33C195.834 2960.33 220.486 2970.4 240.625 2990.54C260.764 3010.68 270.834 3035.33 270.834 3064.5C270.834 3093.67 260.764 3118.32 240.625 3138.46C220.486 3158.6 195.834 3168.67 166.667 3168.67C161.111 3168.67 156.084 3168.32 151.584 3167.62C147.056 3166.93 142.361 3165.89 137.5 3164.5C117.361 3185.33 96.0142 3206.51 73.4587 3228.04C50.8753 3249.57 26.3892 3271.44 0.000335693 3293.67Z" fill="#DB0914"/>
</g>
<mask id="mask17_3_14" style="mask-type:alpha" maskUnits="userSpaceOnUse" x="9500" y="2377" width="1000" height="1000">
<rect x="9500" y="2377" width="1000" height="1000" fill="#D9D9D9"/>
</mask>
<g mask="url(#mask17_3_14)">
<path d="M10000 3293.67C9888.19 3198.53 9804.69 3110.15 9749.5 3028.54C9694.28 2946.96 9666.67 2871.44 9666.67 2802C9666.67 2697.83 9700.18 2614.85 9767.21 2553.04C9834.21 2491.24 9911.81 2460.33 10000 2460.33C10088.2 2460.33 10165.8 2491.24 10232.8 2553.04C10299.8 2614.85 10333.3 2697.83 10333.3 2802L10420.8 2714.5L10479.2 2772.83L10291.7 2960.33L10104.2 2772.83L10162.5 2714.5L10250 2802C10250 2726.31 10225.9 2664.32 10177.6 2616.04C10129.3 2567.79 10070.1 2543.67 10000 2543.67C9929.86 2543.67 9870.65 2567.79 9822.38 2616.04C9774.13 2664.32 9750 2726.31 9750 2802C9750 2851.31 9770.49 2907.72 9811.46 2971.25C9852.43 3034.81 9915.28 3105.47 10000 3183.25C10013.9 3170.75 10026.7 3158.6 10038.5 3146.79L10074 3111.37C10070.5 3104.43 10067.7 3096.96 10065.6 3088.96C10063.5 3080.99 10062.5 3072.83 10062.5 3064.5C10062.5 3035.33 10072.6 3010.68 10092.7 2990.54C10112.8 2970.4 10137.5 2960.33 10166.7 2960.33C10195.8 2960.33 10220.5 2970.4 10240.6 2990.54C10260.8 3010.68 10270.8 3035.33 10270.8 3064.5C10270.8 3093.67 10260.8 3118.32 10240.6 3138.46C10220.5 3158.6 10195.8 3168.67 10166.7 3168.67C10161.1 3168.67 10156.1 3168.32 10151.6 3167.62C10147.1 3166.93 10142.4 3165.89 10137.5 3164.5C10117.4 3185.33 10096 3206.51 10073.5 3228.04C10050.9 3249.57 10026.4 3271.44 10000 3293.67Z" fill="#DB0914"/>
</g>
<mask id="mask18_3_14" style="mask-type:alpha" maskUnits="userSpaceOnUse" x="7500" y="2377" width="1000" height="1000">
<rect x="7500" y="2377" width="1000" height="1000" fill="#D9D9D9"/>
</mask>
<g mask="url(#mask18_3_14)">
<path d="M8000 3293.67C7888.19 3198.53 7804.69 3110.15 7749.5 3028.54C7694.28 2946.96 7666.67 2871.44 7666.67 2802C7666.67 2697.83 7700.18 2614.85 7767.21 2553.04C7834.21 2491.24 7911.81 2460.33 8000 2460.33C8088.19 2460.33 8165.79 2491.24 8232.79 2553.04C8299.82 2614.85 8333.33 2697.83 8333.33 2802L8420.83 2714.5L8479.17 2772.83L8291.67 2960.33L8104.17 2772.83L8162.5 2714.5L8250 2802C8250 2726.31 8225.86 2664.32 8177.58 2616.04C8129.33 2567.79 8070.14 2543.67 8000 2543.67C7929.86 2543.67 7870.65 2567.79 7822.38 2616.04C7774.13 2664.32 7750 2726.31 7750 2802C7750 2851.31 7770.49 2907.72 7811.46 2971.25C7852.43 3034.81 7915.28 3105.47 8000 3183.25C8013.89 3170.75 8026.74 3158.6 8038.54 3146.79L8073.96 3111.37C8070.49 3104.43 8067.71 3096.96 8065.63 3088.96C8063.54 3080.99 8062.5 3072.83 8062.5 3064.5C8062.5 3035.33 8072.57 3010.68 8092.71 2990.54C8112.85 2970.4 8137.5 2960.33 8166.67 2960.33C8195.83 2960.33 8220.49 2970.4 8240.63 2990.54C8260.76 3010.68 8270.83 3035.33 8270.83 3064.5C8270.83 3093.67 8260.76 3118.32 8240.63 3138.46C8220.49 3158.6 8195.83 3168.67 8166.67 3168.67C8161.11 3168.67 8156.08 3168.32 8151.58 3167.62C8147.06 3166.93 8142.36 3165.89 8137.5 3164.5C8117.36 3185.33 8096.01 3206.51 8073.46 3228.04C8050.88 3249.57 8026.39 3271.44 8000 3293.67Z" fill="#DB0914"/>
</g>
<mask id="mask19_3_14" style="mask-type:alpha" maskUnits="userSpaceOnUse" x="5500" y="2377" width="1000" height="1000">
<rect x="5500" y="2377" width="1000" height="1000" fill="#D9D9D9"/>
</mask>
<g mask="url(#mask19_3_14)">
<path d="M6000 3293.67C5888.19 3198.53 5804.69 3110.15 5749.5 3028.54C5694.28 2946.96 5666.67 2871.44 5666.67 2802C5666.67 2697.83 5700.18 2614.85 5767.21 2553.04C5834.21 2491.24 5911.81 2460.33 6000 2460.33C6088.19 2460.33 6165.79 2491.24 6232.79 2553.04C6299.82 2614.85 6333.33 2697.83 6333.33 2802L6420.83 2714.5L6479.17 2772.83L6291.67 2960.33L6104.17 2772.83L6162.5 2714.5L6250 2802C6250 2726.31 6225.86 2664.32 6177.58 2616.04C6129.33 2567.79 6070.14 2543.67 6000 2543.67C5929.86 2543.67 5870.65 2567.79 5822.38 2616.04C5774.13 2664.32 5750 2726.31 5750 2802C5750 2851.31 5770.49 2907.72 5811.46 2971.25C5852.43 3034.81 5915.28 3105.47 6000 3183.25C6013.89 3170.75 6026.74 3158.6 6038.54 3146.79L6073.96 3111.37C6070.49 3104.43 6067.71 3096.96 6065.63 3088.96C6063.54 3080.99 6062.5 3072.83 6062.5 3064.5C6062.5 3035.33 6072.57 3010.68 6092.71 2990.54C6112.85 2970.4 6137.5 2960.33 6166.67 2960.33C6195.83 2960.33 6220.49 2970.4 6240.63 2990.54C6260.76 3010.68 6270.83 3035.33 6270.83 3064.5C6270.83 3093.67 6260.76 3118.32 6240.63 3138.46C6220.49 3158.6 6195.83 3168.67 6166.67 3168.67C6161.11 3168.67 6156.08 3168.32 6151.58 3167.62C6147.06 3166.93 6142.36 3165.89 6137.5 3164.5C6117.36 3185.33 6096.01 3206.51 6073.46 3228.04C6050.88 3249.57 6026.39 3271.44 6000 3293.67Z" fill="#DB0914"/>
</g>
<mask id="mask20_3_14" style="mask-type:alpha" maskUnits="userSpaceOnUse" x="3500" y="2377" width="1000" height="1000">
<rect x="3500" y="2377" width="1000" height="1000" fill="#D9D9D9"/>
</mask>
<g mask="url(#mask20_3_14)">
<path d="M4000 3293.67C3888.19 3198.53 3804.69 3110.15 3749.5 3028.54C3694.28 2946.96 3666.67 2871.44 3666.67 2802C3666.67 2697.83 3700.18 2614.85 3767.21 2553.04C3834.21 2491.24 3911.81 2460.33 4000 2460.33C4088.19 2460.33 4165.79 2491.24 4232.79 2553.04C4299.82 2614.85 4333.33 2697.83 4333.33 2802L4420.83 2714.5L4479.17 2772.83L4291.67 2960.33L4104.17 2772.83L4162.5 2714.5L4250 2802C4250 2726.31 4225.86 2664.32 4177.58 2616.04C4129.33 2567.79 4070.14 2543.67 4000 2543.67C3929.86 2543.67 3870.65 2567.79 3822.38 2616.04C3774.13 2664.32 3750 2726.31 3750 2802C3750 2851.31 3770.49 2907.72 3811.46 2971.25C3852.43 3034.81 3915.28 3105.47 4000 3183.25C4013.89 3170.75 4026.74 3158.6 4038.54 3146.79L4073.96 3111.37C4070.49 3104.43 4067.71 3096.96 4065.63 3088.96C4063.54 3080.99 4062.5 3072.83 4062.5 3064.5C4062.5 3035.33 4072.57 3010.68 4092.71 2990.54C4112.85 2970.4 4137.5 2960.33 4166.67 2960.33C4195.83 2960.33 4220.49 2970.4 4240.63 2990.54C4260.76 3010.68 4270.83 3035.33 4270.83 3064.5C4270.83 3093.67 4260.76 3118.32 4240.63 3138.46C4220.49 3158.6 4195.83 3168.67 4166.67 3168.67C4161.11 3168.67 4156.08 3168.32 4151.58 3167.62C4147.06 3166.93 4142.36 3165.89 4137.5 3164.5C4117.36 3185.33 4096.01 3206.51 4073.46 3228.04C4050.88 3249.57 4026.39 3271.44 4000 3293.67Z" fill="#DB0914"/>
</g>
<mask id="mask21_3_14" style="mask-type:alpha" maskUnits="userSpaceOnUse" x="1500" y="2377" width="1000" height="1000">
<rect x="1500" y="2377" width="1000" height="1000" fill="#D9D9D9"/>
</mask>
<g mask="url(#mask21_3_14)">
<path d="M2000 3293.67C1888.19 3198.53 1804.69 3110.15 1749.5 3028.54C1694.28 2946.96 1666.67 2871.44 1666.67 2802C1666.67 2697.83 1700.18 2614.85 1767.21 2553.04C1834.21 2491.24 1911.81 2460.33 2000 2460.33C2088.19 2460.33 2165.79 2491.24 2232.79 2553.04C2299.82 2614.85 2333.33 2697.83 2333.33 2802L2420.83 2714.5L2479.17 2772.83L2291.67 2960.33L2104.17 2772.83L2162.5 2714.5L2250 2802C2250 2726.31 2225.86 2664.32 2177.58 2616.04C2129.33 2567.79 2070.14 2543.67 2000 2543.67C1929.86 2543.67 1870.65 2567.79 1822.38 2616.04C1774.13 2664.32 1750 2726.31 1750 2802C1750 2851.31 1770.49 2907.72 1811.46 2971.25C1852.43 3034.81 1915.28 3105.47 2000 3183.25C2013.89 3170.75 2026.74 3158.6 2038.54 3146.79L2073.96 3111.37C2070.49 3104.43 2067.71 3096.96 2065.63 3088.96C2063.54 3080.99 2062.5 3072.83 2062.5 3064.5C2062.5 3035.33 2072.57 3010.68 2092.71 2990.54C2112.85 2970.4 2137.5 2960.33 2166.67 2960.33C2195.83 2960.33 2220.49 2970.4 2240.63 2990.54C2260.76 3010.68 2270.83 3035.33 2270.83 3064.5C2270.83 3093.67 2260.76 3118.32 2240.63 3138.46C2220.49 3158.6 2195.83 3168.67 2166.67 3168.67C2161.11 3168.67 2156.08 3168.32 2151.58 3167.62C2147.06 3166.93 2142.36 3165.89 2137.5 3164.5C2117.36 3185.33 2096.01 3206.51 2073.46 3228.04C2050.88 3249.57 2026.39 3271.44 2000 3293.67Z" fill="#DB0914"/>
</g>
<mask id="mask22_3_14" style="mask-type:alpha" maskUnits="userSpaceOnUse" x="1000" y="5500" width="2000" height="2000">
<rect x="1000" y="5500" width="2000" height="2000" fill="#D9D9D9"/>
</mask>
<g mask="url(#mask22_3_14)">
<path d="M2000 7333.33C1776.39 7143.06 1609.39 6966.31 1499 6803.08C1388.56 6639.92 1333.33 6488.89 1333.33 6350C1333.33 6141.67 1400.36 5975.69 1534.42 5852.08C1668.42 5728.47 1823.61 5666.67 2000 5666.67C2176.39 5666.67 2331.58 5728.47 2465.58 5852.08C2599.64 5975.69 2666.67 6141.67 2666.67 6350L2841.67 6175L2958.33 6291.67L2583.33 6666.67L2208.33 6291.67L2325 6175L2500 6350C2500 6198.61 2451.72 6074.64 2355.17 5978.08C2258.67 5881.58 2140.28 5833.33 2000 5833.33C1859.72 5833.33 1741.31 5881.58 1644.75 5978.08C1548.25 6074.64 1500 6198.61 1500 6350C1500 6448.61 1540.97 6561.44 1622.92 6688.5C1704.86 6815.61 1830.56 6956.94 2000 7112.5C2027.78 7087.5 2053.47 7063.19 2077.08 7039.58L2147.92 6968.75C2140.97 6954.86 2135.42 6939.92 2131.25 6923.92C2127.08 6907.97 2125 6891.67 2125 6875C2125 6816.67 2145.14 6767.36 2185.42 6727.08C2225.69 6686.81 2275 6666.67 2333.33 6666.67C2391.67 6666.67 2440.97 6686.81 2481.25 6727.08C2521.53 6767.36 2541.67 6816.67 2541.67 6875C2541.67 6933.33 2521.53 6982.64 2481.25 7022.92C2440.97 7063.19 2391.67 7083.33 2333.33 7083.33C2322.22 7083.33 2312.17 7082.64 2303.17 7081.25C2294.11 7079.86 2284.72 7077.78 2275 7075C2234.72 7116.67 2192.03 7159.03 2146.92 7202.08C2101.75 7245.14 2052.78 7288.89 2000 7333.33Z" fill="#DB0914"/>
</g>
<mask id="mask23_3_14" style="mask-type:alpha" maskUnits="userSpaceOnUse" x="-1000" y="5500" width="2000" height="2000">
<rect x="-1000" y="5500" width="2000" height="2000" fill="#D9D9D9"/>
</mask>
<g mask="url(#mask23_3_14)">
<path d="M0.000183105 7333.33C-223.611 7143.06 -390.611 6966.31 -501 6803.08C-611.444 6639.92 -666.667 6488.89 -666.667 6350C-666.667 6141.67 -599.639 5975.69 -465.583 5852.08C-331.583 5728.47 -176.389 5666.67 0.000183105 5666.67C176.389 5666.67 331.584 5728.47 465.584 5852.08C599.639 5975.69 666.667 6141.67 666.667 6350L841.667 6175L958.334 6291.67L583.334 6666.67L208.334 6291.67L325 6175L500 6350C500 6198.61 451.722 6074.64 355.167 5978.08C258.667 5881.58 140.278 5833.33 0.000183105 5833.33C-140.278 5833.33 -258.694 5881.58 -355.25 5978.08C-451.75 6074.64 -500 6198.61 -500 6350C-500 6448.61 -459.028 6561.44 -377.083 6688.5C-295.139 6815.61 -169.444 6956.94 0.000183105 7112.5C27.778 7087.5 53.4724 7063.19 77.0835 7039.58L147.917 6968.75C140.972 6954.86 135.417 6939.92 131.25 6923.92C127.084 6907.97 125 6891.67 125 6875C125 6816.67 145.139 6767.36 185.417 6727.08C225.695 6686.81 275 6666.67 333.334 6666.67C391.667 6666.67 440.972 6686.81 481.25 6727.08C521.528 6767.36 541.667 6816.67 541.667 6875C541.667 6933.33 521.528 6982.64 481.25 7022.92C440.972 7063.19 391.667 7083.33 333.334 7083.33C322.222 7083.33 312.167 7082.64 303.167 7081.25C294.111 7079.86 284.722 7077.78 275 7075C234.722 7116.67 192.028 7159.03 146.917 7202.08C101.75 7245.14 52.778 7288.89 0.000183105 7333.33Z" fill="#DB0914"/>
</g>
<mask id="mask24_3_14" style="mask-type:alpha" maskUnits="userSpaceOnUse" x="9000" y="5500" width="2000" height="2000">
<rect x="9000" y="5500" width="2000" height="2000" fill="#D9D9D9"/>
</mask>
<g mask="url(#mask24_3_14)">
<path d="M10000 7333.33C9776.39 7143.06 9609.39 6966.31 9499 6803.08C9388.56 6639.92 9333.33 6488.89 9333.33 6350C9333.33 6141.67 9400.36 5975.69 9534.42 5852.08C9668.42 5728.47 9823.61 5666.67 10000 5666.67C10176.4 5666.67 10331.6 5728.47 10465.6 5852.08C10599.6 5975.69 10666.7 6141.67 10666.7 6350L10841.7 6175L10958.3 6291.67L10583.3 6666.67L10208.3 6291.67L10325 6175L10500 6350C10500 6198.61 10451.7 6074.64 10355.2 5978.08C10258.7 5881.58 10140.3 5833.33 10000 5833.33C9859.72 5833.33 9741.31 5881.58 9644.75 5978.08C9548.25 6074.64 9500 6198.61 9500 6350C9500 6448.61 9540.97 6561.44 9622.92 6688.5C9704.86 6815.61 9830.56 6956.94 10000 7112.5C10027.8 7087.5 10053.5 7063.19 10077.1 7039.58L10147.9 6968.75C10141 6954.86 10135.4 6939.92 10131.3 6923.92C10127.1 6907.97 10125 6891.67 10125 6875C10125 6816.67 10145.1 6767.36 10185.4 6727.08C10225.7 6686.81 10275 6666.67 10333.3 6666.67C10391.7 6666.67 10441 6686.81 10481.3 6727.08C10521.5 6767.36 10541.7 6816.67 10541.7 6875C10541.7 6933.33 10521.5 6982.64 10481.3 7022.92C10441 7063.19 10391.7 7083.33 10333.3 7083.33C10322.2 7083.33 10312.2 7082.64 10303.2 7081.25C10294.1 7079.86 10284.7 7077.78 10275 7075C10234.7 7116.67 10192 7159.03 10146.9 7202.08C10101.8 7245.14 10052.8 7288.89 10000 7333.33Z" fill="#DB0914"/>
</g>
<mask id="mask25_3_14" style="mask-type:alpha" maskUnits="userSpaceOnUse" x="7000" y="5500" width="2000" height="2000">
<rect x="7000" y="5500" width="2000" height="2000" fill="#D9D9D9"/>
</mask>
<g mask="url(#mask25_3_14)">
<path d="M8000 7333.33C7776.39 7143.06 7609.39 6966.31 7499 6803.08C7388.56 6639.92 7333.33 6488.89 7333.33 6350C7333.33 6141.67 7400.36 5975.69 7534.42 5852.08C7668.42 5728.47 7823.61 5666.67 8000 5666.67C8176.39 5666.67 8331.58 5728.47 8465.58 5852.08C8599.64 5975.69 8666.67 6141.67 8666.67 6350L8841.67 6175L8958.33 6291.67L8583.33 6666.67L8208.33 6291.67L8325 6175L8500 6350C8500 6198.61 8451.72 6074.64 8355.17 5978.08C8258.67 5881.58 8140.28 5833.33 8000 5833.33C7859.72 5833.33 7741.31 5881.58 7644.75 5978.08C7548.25 6074.64 7500 6198.61 7500 6350C7500 6448.61 7540.97 6561.44 7622.92 6688.5C7704.86 6815.61 7830.56 6956.94 8000 7112.5C8027.78 7087.5 8053.47 7063.19 8077.08 7039.58L8147.92 6968.75C8140.97 6954.86 8135.42 6939.92 8131.25 6923.92C8127.08 6907.97 8125 6891.67 8125 6875C8125 6816.67 8145.14 6767.36 8185.42 6727.08C8225.69 6686.81 8275 6666.67 8333.33 6666.67C8391.67 6666.67 8440.97 6686.81 8481.25 6727.08C8521.53 6767.36 8541.67 6816.67 8541.67 6875C8541.67 6933.33 8521.53 6982.64 8481.25 7022.92C8440.97 7063.19 8391.67 7083.33 8333.33 7083.33C8322.22 7083.33 8312.17 7082.64 8303.17 7081.25C8294.11 7079.86 8284.72 7077.78 8275 7075C8234.72 7116.67 8192.03 7159.03 8146.92 7202.08C8101.75 7245.14 8052.78 7288.89 8000 7333.33Z" fill="#DB0914"/>
</g>
<mask id="mask26_3_14" style="mask-type:alpha" maskUnits="userSpaceOnUse" x="5000" y="5500" width="2000" height="2000">
<rect x="5000" y="5500" width="2000" height="2000" fill="#D9D9D9"/>
</mask>
<g mask="url(#mask26_3_14)">
<path d="M6000 7333.33C5776.39 7143.06 5609.39 6966.31 5499 6803.08C5388.56 6639.92 5333.33 6488.89 5333.33 6350C5333.33 6141.67 5400.36 5975.69 5534.42 5852.08C5668.42 5728.47 5823.61 5666.67 6000 5666.67C6176.39 5666.67 6331.58 5728.47 6465.58 5852.08C6599.64 5975.69 6666.67 6141.67 6666.67 6350L6841.67 6175L6958.33 6291.67L6583.33 6666.67L6208.33 6291.67L6325 6175L6500 6350C6500 6198.61 6451.72 6074.64 6355.17 5978.08C6258.67 5881.58 6140.28 5833.33 6000 5833.33C5859.72 5833.33 5741.31 5881.58 5644.75 5978.08C5548.25 6074.64 5500 6198.61 5500 6350C5500 6448.61 5540.97 6561.44 5622.92 6688.5C5704.86 6815.61 5830.56 6956.94 6000 7112.5C6027.78 7087.5 6053.47 7063.19 6077.08 7039.58L6147.92 6968.75C6140.97 6954.86 6135.42 6939.92 6131.25 6923.92C6127.08 6907.97 6125 6891.67 6125 6875C6125 6816.67 6145.14 6767.36 6185.42 6727.08C6225.69 6686.81 6275 6666.67 6333.33 6666.67C6391.67 6666.67 6440.97 6686.81 6481.25 6727.08C6521.53 6767.36 6541.67 6816.67 6541.67 6875C6541.67 6933.33 6521.53 6982.64 6481.25 7022.92C6440.97 7063.19 6391.67 7083.33 6333.33 7083.33C6322.22 7083.33 6312.17 7082.64 6303.17 7081.25C6294.11 7079.86 6284.72 7077.78 6275 7075C6234.72 7116.67 6192.03 7159.03 6146.92 7202.08C6101.75 7245.14 6052.78 7288.89 6000 7333.33Z" fill="#DB0914"/>
</g>
<mask id="mask27_3_14" style="mask-type:alpha" maskUnits="userSpaceOnUse" x="3000" y="5500" width="2000" height="2000">
<rect x="3000" y="5500" width="2000" height="2000" fill="#D9D9D9"/>
</mask>
<g mask="url(#mask27_3_14)">
<path d="M4000 7333.33C3776.39 7143.06 3609.39 6966.31 3499 6803.08C3388.56 6639.92 3333.33 6488.89 3333.33 6350C3333.33 6141.67 3400.36 5975.69 3534.42 5852.08C3668.42 5728.47 3823.61 5666.67 4000 5666.67C4176.39 5666.67 4331.58 5728.47 4465.58 5852.08C4599.64 5975.69 4666.67 6141.67 4666.67 6350L4841.67 6175L4958.33 6291.67L4583.33 6666.67L4208.33 6291.67L4325 6175L4500 6350C4500 6198.61 4451.72 6074.64 4355.17 5978.08C4258.67 5881.58 4140.28 5833.33 4000 5833.33C3859.72 5833.33 3741.31 5881.58 3644.75 5978.08C3548.25 6074.64 3500 6198.61 3500 6350C3500 6448.61 3540.97 6561.44 3622.92 6688.5C3704.86 6815.61 3830.56 6956.94 4000 7112.5C4027.78 7087.5 4053.47 7063.19 4077.08 7039.58L4147.92 6968.75C4140.97 6954.86 4135.42 6939.92 4131.25 6923.92C4127.08 6907.97 4125 6891.67 4125 6875C4125 6816.67 4145.14 6767.36 4185.42 6727.08C4225.69 6686.81 4275 6666.67 4333.33 6666.67C4391.67 6666.67 4440.97 6686.81 4481.25 6727.08C4521.53 6767.36 4541.67 6816.67 4541.67 6875C4541.67 6933.33 4521.53 6982.64 4481.25 7022.92C4440.97 7063.19 4391.67 7083.33 4333.33 7083.33C4322.22 7083.33 4312.17 7082.64 4303.17 7081.25C4294.11 7079.86 4284.72 7077.78 4275 7075C4234.72 7116.67 4192.03 7159.03 4146.92 7202.08C4101.75 7245.14 4052.78 7288.89 4000 7333.33Z" fill="#DB0914"/>
</g>
<mask id="mask28_3_14" style="mask-type:alpha" maskUnits="userSpaceOnUse" x="500" y="4959" width="1000" height="1000">
<rect x="500" y="4959" width="1000" height="1000" fill="#D9D9D9"/>
</mask>
<g mask="url(#mask28_3_14)">
<path d="M1000 5875.67C888.195 5780.53 804.695 5692.15 749.5 5610.54C694.278 5528.96 666.667 5453.44 666.667 5384C666.667 5279.83 700.181 5196.85 767.208 5135.04C834.208 5073.24 911.806 5042.33 1000 5042.33C1088.19 5042.33 1165.79 5073.24 1232.79 5135.04C1299.82 5196.85 1333.33 5279.83 1333.33 5384L1420.83 5296.5L1479.17 5354.83L1291.67 5542.33L1104.17 5354.83L1162.5 5296.5L1250 5384C1250 5308.31 1225.86 5246.32 1177.58 5198.04C1129.33 5149.79 1070.14 5125.67 1000 5125.67C929.861 5125.67 870.653 5149.79 822.375 5198.04C774.125 5246.32 750 5308.31 750 5384C750 5433.31 770.486 5489.72 811.458 5553.25C852.431 5616.81 915.278 5687.47 1000 5765.25C1013.89 5752.75 1026.74 5740.6 1038.54 5728.79L1073.96 5693.37C1070.49 5686.43 1067.71 5678.96 1065.63 5670.96C1063.54 5662.99 1062.5 5654.83 1062.5 5646.5C1062.5 5617.33 1072.57 5592.68 1092.71 5572.54C1112.85 5552.4 1137.5 5542.33 1166.67 5542.33C1195.83 5542.33 1220.49 5552.4 1240.63 5572.54C1260.76 5592.68 1270.83 5617.33 1270.83 5646.5C1270.83 5675.67 1260.76 5700.32 1240.63 5720.46C1220.49 5740.6 1195.83 5750.67 1166.67 5750.67C1161.11 5750.67 1156.08 5750.32 1151.58 5749.62C1147.06 5748.93 1142.36 5747.89 1137.5 5746.5C1117.36 5767.33 1096.01 5788.51 1073.46 5810.04C1050.88 5831.57 1026.39 5853.44 1000 5875.67Z" fill="#DB0914"/>
</g>
<mask id="mask29_3_14" style="mask-type:alpha" maskUnits="userSpaceOnUse" x="8500" y="4959" width="1000" height="1000">
<rect x="8500" y="4959" width="1000" height="1000" fill="#D9D9D9"/>
</mask>
<g mask="url(#mask29_3_14)">
<path d="M9000 5875.67C8888.19 5780.53 8804.69 5692.15 8749.5 5610.54C8694.28 5528.96 8666.67 5453.44 8666.67 5384C8666.67 5279.83 8700.18 5196.85 8767.21 5135.04C8834.21 5073.24 8911.81 5042.33 9000 5042.33C9088.19 5042.33 9165.79 5073.24 9232.79 5135.04C9299.82 5196.85 9333.33 5279.83 9333.33 5384L9420.83 5296.5L9479.17 5354.83L9291.67 5542.33L9104.17 5354.83L9162.5 5296.5L9250 5384C9250 5308.31 9225.86 5246.32 9177.58 5198.04C9129.33 5149.79 9070.14 5125.67 9000 5125.67C8929.86 5125.67 8870.65 5149.79 8822.38 5198.04C8774.13 5246.32 8750 5308.31 8750 5384C8750 5433.31 8770.49 5489.72 8811.46 5553.25C8852.43 5616.81 8915.28 5687.47 9000 5765.25C9013.89 5752.75 9026.74 5740.6 9038.54 5728.79L9073.96 5693.37C9070.49 5686.43 9067.71 5678.96 9065.63 5670.96C9063.54 5662.99 9062.5 5654.83 9062.5 5646.5C9062.5 5617.33 9072.57 5592.68 9092.71 5572.54C9112.85 5552.4 9137.5 5542.33 9166.67 5542.33C9195.83 5542.33 9220.49 5552.4 9240.63 5572.54C9260.76 5592.68 9270.83 5617.33 9270.83 5646.5C9270.83 5675.67 9260.76 5700.32 9240.63 5720.46C9220.49 5740.6 9195.83 5750.67 9166.67 5750.67C9161.11 5750.67 9156.08 5750.32 9151.58 5749.62C9147.06 5748.93 9142.36 5747.89 9137.5 5746.5C9117.36 5767.33 9096.01 5788.51 9073.46 5810.04C9050.88 5831.57 9026.39 5853.44 9000 5875.67Z" fill="#DB0914"/>
</g>
<mask id="mask30_3_14" style="mask-type:alpha" maskUnits="userSpaceOnUse" x="6500" y="4959" width="1000" height="1000">
<rect x="6500" y="4959" width="1000" height="1000" fill="#D9D9D9"/>
</mask>
<g mask="url(#mask30_3_14)">
<path d="M7000 5875.67C6888.19 5780.53 6804.69 5692.15 6749.5 5610.54C6694.28 5528.96 6666.67 5453.44 6666.67 5384C6666.67 5279.83 6700.18 5196.85 6767.21 5135.04C6834.21 5073.24 6911.81 5042.33 7000 5042.33C7088.19 5042.33 7165.79 5073.24 7232.79 5135.04C7299.82 5196.85 7333.33 5279.83 7333.33 5384L7420.83 5296.5L7479.17 5354.83L7291.67 5542.33L7104.17 5354.83L7162.5 5296.5L7250 5384C7250 5308.31 7225.86 5246.32 7177.58 5198.04C7129.33 5149.79 7070.14 5125.67 7000 5125.67C6929.86 5125.67 6870.65 5149.79 6822.38 5198.04C6774.13 5246.32 6750 5308.31 6750 5384C6750 5433.31 6770.49 5489.72 6811.46 5553.25C6852.43 5616.81 6915.28 5687.47 7000 5765.25C7013.89 5752.75 7026.74 5740.6 7038.54 5728.79L7073.96 5693.37C7070.49 5686.43 7067.71 5678.96 7065.63 5670.96C7063.54 5662.99 7062.5 5654.83 7062.5 5646.5C7062.5 5617.33 7072.57 5592.68 7092.71 5572.54C7112.85 5552.4 7137.5 5542.33 7166.67 5542.33C7195.83 5542.33 7220.49 5552.4 7240.63 5572.54C7260.76 5592.68 7270.83 5617.33 7270.83 5646.5C7270.83 5675.67 7260.76 5700.32 7240.63 5720.46C7220.49 5740.6 7195.83 5750.67 7166.67 5750.67C7161.11 5750.67 7156.08 5750.32 7151.58 5749.62C7147.06 5748.93 7142.36 5747.89 7137.5 5746.5C7117.36 5767.33 7096.01 5788.51 7073.46 5810.04C7050.88 5831.57 7026.39 5853.44 7000 5875.67Z" fill="#DB0914"/>
</g>
<mask id="mask31_3_14" style="mask-type:alpha" maskUnits="userSpaceOnUse" x="4500" y="4959" width="1000" height="1000">
<rect x="4500" y="4959" width="1000" height="1000" fill="#D9D9D9"/>
</mask>
<g mask="url(#mask31_3_14)">
<path d="M5000 5875.67C4888.19 5780.53 4804.69 5692.15 4749.5 5610.54C4694.28 5528.96 4666.67 5453.44 4666.67 5384C4666.67 5279.83 4700.18 5196.85 4767.21 5135.04C4834.21 5073.24 4911.81 5042.33 5000 5042.33C5088.19 5042.33 5165.79 5073.24 5232.79 5135.04C5299.82 5196.85 5333.33 5279.83 5333.33 5384L5420.83 5296.5L5479.17 5354.83L5291.67 5542.33L5104.17 5354.83L5162.5 5296.5L5250 5384C5250 5308.31 5225.86 5246.32 5177.58 5198.04C5129.33 5149.79 5070.14 5125.67 5000 5125.67C4929.86 5125.67 4870.65 5149.79 4822.38 5198.04C4774.13 5246.32 4750 5308.31 4750 5384C4750 5433.31 4770.49 5489.72 4811.46 5553.25C4852.43 5616.81 4915.28 5687.47 5000 5765.25C5013.89 5752.75 5026.74 5740.6 5038.54 5728.79L5073.96 5693.37C5070.49 5686.43 5067.71 5678.96 5065.63 5670.96C5063.54 5662.99 5062.5 5654.83 5062.5 5646.5C5062.5 5617.33 5072.57 5592.68 5092.71 5572.54C5112.85 5552.4 5137.5 5542.33 5166.67 5542.33C5195.83 5542.33 5220.49 5552.4 5240.63 5572.54C5260.76 5592.68 5270.83 5617.33 5270.83 5646.5C5270.83 5675.67 5260.76 5700.32 5240.63 5720.46C5220.49 5740.6 5195.83 5750.67 5166.67 5750.67C5161.11 5750.67 5156.08 5750.32 5151.58 5749.62C5147.06 5748.93 5142.36 5747.89 5137.5 5746.5C5117.36 5767.33 5096.01 5788.51 5073.46 5810.04C5050.88 5831.57 5026.39 5853.44 5000 5875.67Z" fill="#DB0914"/>
</g>
<mask id="mask32_3_14" style="mask-type:alpha" maskUnits="userSpaceOnUse" x="2500" y="4959" width="1000" height="1000">
<rect x="2500" y="4959" width="1000" height="1000" fill="#D9D9D9"/>
</mask>
<g mask="url(#mask32_3_14)">
<path d="M3000 5875.67C2888.19 5780.53 2804.69 5692.15 2749.5 5610.54C2694.28 5528.96 2666.67 5453.44 2666.67 5384C2666.67 5279.83 2700.18 5196.85 2767.21 5135.04C2834.21 5073.24 2911.81 5042.33 3000 5042.33C3088.19 5042.33 3165.79 5073.24 3232.79 5135.04C3299.82 5196.85 3333.33 5279.83 3333.33 5384L3420.83 5296.5L3479.17 5354.83L3291.67 5542.33L3104.17 5354.83L3162.5 5296.5L3250 5384C3250 5308.31 3225.86 5246.32 3177.58 5198.04C3129.33 5149.79 3070.14 5125.67 3000 5125.67C2929.86 5125.67 2870.65 5149.79 2822.38 5198.04C2774.13 5246.32 2750 5308.31 2750 5384C2750 5433.31 2770.49 5489.72 2811.46 5553.25C2852.43 5616.81 2915.28 5687.47 3000 5765.25C3013.89 5752.75 3026.74 5740.6 3038.54 5728.79L3073.96 5693.37C3070.49 5686.43 3067.71 5678.96 3065.63 5670.96C3063.54 5662.99 3062.5 5654.83 3062.5 5646.5C3062.5 5617.33 3072.57 5592.68 3092.71 5572.54C3112.85 5552.4 3137.5 5542.33 3166.67 5542.33C3195.83 5542.33 3220.49 5552.4 3240.63 5572.54C3260.76 5592.68 3270.83 5617.33 3270.83 5646.5C3270.83 5675.67 3260.76 5700.32 3240.63 5720.46C3220.49 5740.6 3195.83 5750.67 3166.67 5750.67C3161.11 5750.67 3156.08 5750.32 3151.58 5749.62C3147.06 5748.93 3142.36 5747.89 3137.5 5746.5C3117.36 5767.33 3096.01 5788.51 3073.46 5810.04C3050.88 5831.57 3026.39 5853.44 3000 5875.67Z" fill="#DB0914"/>
</g>
<mask id="mask33_3_14" style="mask-type:alpha" maskUnits="userSpaceOnUse" x="1000" y="377" width="2000" height="2000">
<rect x="1000" y="377" width="2000" height="2000" fill="#D9D9D9"/>
</mask>
<g mask="url(#mask33_3_14)">
<path d="M2000 2210.33C1776.39 2020.06 1609.39 1843.31 1499 1680.08C1388.56 1516.92 1333.33 1365.89 1333.33 1227C1333.33 1018.67 1400.36 852.694 1534.42 729.083C1668.42 605.472 1823.61 543.667 2000 543.667C2176.39 543.667 2331.58 605.472 2465.58 729.083C2599.64 852.694 2666.67 1018.67 2666.67 1227L2841.67 1052L2958.33 1168.67L2583.33 1543.67L2208.33 1168.67L2325 1052L2500 1227C2500 1075.61 2451.72 951.639 2355.17 855.083C2258.67 758.583 2140.28 710.333 2000 710.333C1859.72 710.333 1741.31 758.583 1644.75 855.083C1548.25 951.639 1500 1075.61 1500 1227C1500 1325.61 1540.97 1438.44 1622.92 1565.5C1704.86 1692.61 1830.56 1833.94 2000 1989.5C2027.78 1964.5 2053.47 1940.19 2077.08 1916.58L2147.92 1845.75C2140.97 1831.86 2135.42 1816.92 2131.25 1800.92C2127.08 1784.97 2125 1768.67 2125 1752C2125 1693.67 2145.14 1644.36 2185.42 1604.08C2225.69 1563.81 2275 1543.67 2333.33 1543.67C2391.67 1543.67 2440.97 1563.81 2481.25 1604.08C2521.53 1644.36 2541.67 1693.67 2541.67 1752C2541.67 1810.33 2521.53 1859.64 2481.25 1899.92C2440.97 1940.19 2391.67 1960.33 2333.33 1960.33C2322.22 1960.33 2312.17 1959.64 2303.17 1958.25C2294.11 1956.86 2284.72 1954.78 2275 1952C2234.72 1993.67 2192.03 2036.03 2146.92 2079.08C2101.75 2122.14 2052.78 2165.89 2000 2210.33Z" fill="#DB0914"/>
</g>
<mask id="mask34_3_14" style="mask-type:alpha" maskUnits="userSpaceOnUse" x="-1000" y="377" width="2000" height="2000">
<rect x="-1000" y="377" width="2000" height="2000" fill="#D9D9D9"/>
</mask>
<g mask="url(#mask34_3_14)">
<path d="M0.000183105 2210.33C-223.611 2020.06 -390.611 1843.31 -501 1680.08C-611.444 1516.92 -666.667 1365.89 -666.667 1227C-666.667 1018.67 -599.639 852.694 -465.583 729.083C-331.583 605.472 -176.389 543.667 0.000183105 543.667C176.389 543.667 331.584 605.472 465.584 729.083C599.639 852.694 666.667 1018.67 666.667 1227L841.667 1052L958.334 1168.67L583.334 1543.67L208.334 1168.67L325 1052L500 1227C500 1075.61 451.722 951.639 355.167 855.083C258.667 758.583 140.278 710.333 0.000183105 710.333C-140.278 710.333 -258.694 758.583 -355.25 855.083C-451.75 951.639 -500 1075.61 -500 1227C-500 1325.61 -459.028 1438.44 -377.083 1565.5C-295.139 1692.61 -169.444 1833.94 0.000183105 1989.5C27.778 1964.5 53.4724 1940.19 77.0835 1916.58L147.917 1845.75C140.972 1831.86 135.417 1816.92 131.25 1800.92C127.084 1784.97 125 1768.67 125 1752C125 1693.67 145.139 1644.36 185.417 1604.08C225.695 1563.81 275 1543.67 333.334 1543.67C391.667 1543.67 440.972 1563.81 481.25 1604.08C521.528 1644.36 541.667 1693.67 541.667 1752C541.667 1810.33 521.528 1859.64 481.25 1899.92C440.972 1940.19 391.667 1960.33 333.334 1960.33C322.222 1960.33 312.167 1959.64 303.167 1958.25C294.111 1956.86 284.722 1954.78 275 1952C234.722 1993.67 192.028 2036.03 146.917 2079.08C101.75 2122.14 52.778 2165.89 0.000183105 2210.33Z" fill="#DB0914"/>
</g>
<mask id="mask35_3_14" style="mask-type:alpha" maskUnits="userSpaceOnUse" x="9000" y="377" width="2000" height="2000">
<rect x="9000" y="377" width="2000" height="2000" fill="#D9D9D9"/>
</mask>
<g mask="url(#mask35_3_14)">
<path d="M10000 2210.33C9776.39 2020.06 9609.39 1843.31 9499 1680.08C9388.56 1516.92 9333.33 1365.89 9333.33 1227C9333.33 1018.67 9400.36 852.694 9534.42 729.083C9668.42 605.472 9823.61 543.667 10000 543.667C10176.4 543.667 10331.6 605.472 10465.6 729.083C10599.6 852.694 10666.7 1018.67 10666.7 1227L10841.7 1052L10958.3 1168.67L10583.3 1543.67L10208.3 1168.67L10325 1052L10500 1227C10500 1075.61 10451.7 951.639 10355.2 855.083C10258.7 758.583 10140.3 710.333 10000 710.333C9859.72 710.333 9741.31 758.583 9644.75 855.083C9548.25 951.639 9500 1075.61 9500 1227C9500 1325.61 9540.97 1438.44 9622.92 1565.5C9704.86 1692.61 9830.56 1833.94 10000 1989.5C10027.8 1964.5 10053.5 1940.19 10077.1 1916.58L10147.9 1845.75C10141 1831.86 10135.4 1816.92 10131.3 1800.92C10127.1 1784.97 10125 1768.67 10125 1752C10125 1693.67 10145.1 1644.36 10185.4 1604.08C10225.7 1563.81 10275 1543.67 10333.3 1543.67C10391.7 1543.67 10441 1563.81 10481.3 1604.08C10521.5 1644.36 10541.7 1693.67 10541.7 1752C10541.7 1810.33 10521.5 1859.64 10481.3 1899.92C10441 1940.19 10391.7 1960.33 10333.3 1960.33C10322.2 1960.33 10312.2 1959.64 10303.2 1958.25C10294.1 1956.86 10284.7 1954.78 10275 1952C10234.7 1993.67 10192 2036.03 10146.9 2079.08C10101.8 2122.14 10052.8 2165.89 10000 2210.33Z" fill="#DB0914"/>
</g>
<mask id="mask36_3_14" style="mask-type:alpha" maskUnits="userSpaceOnUse" x="7000" y="377" width="2000" height="2000">
<rect x="7000" y="377" width="2000" height="2000" fill="#D9D9D9"/>
</mask>
<g mask="url(#mask36_3_14)">
<path d="M8000 2210.33C7776.39 2020.06 7609.39 1843.31 7499 1680.08C7388.56 1516.92 7333.33 1365.89 7333.33 1227C7333.33 1018.67 7400.36 852.694 7534.42 729.083C7668.42 605.472 7823.61 543.667 8000 543.667C8176.39 543.667 8331.58 605.472 8465.58 729.083C8599.64 852.694 8666.67 1018.67 8666.67 1227L8841.67 1052L8958.33 1168.67L8583.33 1543.67L8208.33 1168.67L8325 1052L8500 1227C8500 1075.61 8451.72 951.639 8355.17 855.083C8258.67 758.583 8140.28 710.333 8000 710.333C7859.72 710.333 7741.31 758.583 7644.75 855.083C7548.25 951.639 7500 1075.61 7500 1227C7500 1325.61 7540.97 1438.44 7622.92 1565.5C7704.86 1692.61 7830.56 1833.94 8000 1989.5C8027.78 1964.5 8053.47 1940.19 8077.08 1916.58L8147.92 1845.75C8140.97 1831.86 8135.42 1816.92 8131.25 1800.92C8127.08 1784.97 8125 1768.67 8125 1752C8125 1693.67 8145.14 1644.36 8185.42 1604.08C8225.69 1563.81 8275 1543.67 8333.33 1543.67C8391.67 1543.67 8440.97 1563.81 8481.25 1604.08C8521.53 1644.36 8541.67 1693.67 8541.67 1752C8541.67 1810.33 8521.53 1859.64 8481.25 1899.92C8440.97 1940.19 8391.67 1960.33 8333.33 1960.33C8322.22 1960.33 8312.17 1959.64 8303.17 1958.25C8294.11 1956.86 8284.72 1954.78 8275 1952C8234.72 1993.67 8192.03 2036.03 8146.92 2079.08C8101.75 2122.14 8052.78 2165.89 8000 2210.33Z" fill="#DB0914"/>
</g>
<mask id="mask37_3_14" style="mask-type:alpha" maskUnits="userSpaceOnUse" x="5000" y="377" width="2000" height="2000">
<rect x="5000" y="377" width="2000" height="2000" fill="#D9D9D9"/>
</mask>
<g mask="url(#mask37_3_14)">
<path d="M6000 2210.33C5776.39 2020.06 5609.39 1843.31 5499 1680.08C5388.56 1516.92 5333.33 1365.89 5333.33 1227C5333.33 1018.67 5400.36 852.694 5534.42 729.083C5668.42 605.472 5823.61 543.667 6000 543.667C6176.39 543.667 6331.58 605.472 6465.58 729.083C6599.64 852.694 6666.67 1018.67 6666.67 1227L6841.67 1052L6958.33 1168.67L6583.33 1543.67L6208.33 1168.67L6325 1052L6500 1227C6500 1075.61 6451.72 951.639 6355.17 855.083C6258.67 758.583 6140.28 710.333 6000 710.333C5859.72 710.333 5741.31 758.583 5644.75 855.083C5548.25 951.639 5500 1075.61 5500 1227C5500 1325.61 5540.97 1438.44 5622.92 1565.5C5704.86 1692.61 5830.56 1833.94 6000 1989.5C6027.78 1964.5 6053.47 1940.19 6077.08 1916.58L6147.92 1845.75C6140.97 1831.86 6135.42 1816.92 6131.25 1800.92C6127.08 1784.97 6125 1768.67 6125 1752C6125 1693.67 6145.14 1644.36 6185.42 1604.08C6225.69 1563.81 6275 1543.67 6333.33 1543.67C6391.67 1543.67 6440.97 1563.81 6481.25 1604.08C6521.53 1644.36 6541.67 1693.67 6541.67 1752C6541.67 1810.33 6521.53 1859.64 6481.25 1899.92C6440.97 1940.19 6391.67 1960.33 6333.33 1960.33C6322.22 1960.33 6312.17 1959.64 6303.17 1958.25C6294.11 1956.86 6284.72 1954.78 6275 1952C6234.72 1993.67 6192.03 2036.03 6146.92 2079.08C6101.75 2122.14 6052.78 2165.89 6000 2210.33Z" fill="#DB0914"/>
</g>
<mask id="mask38_3_14" style="mask-type:alpha" maskUnits="userSpaceOnUse" x="3000" y="377" width="2000" height="2000">
<rect x="3000" y="377" width="2000" height="2000" fill="#D9D9D9"/>
</mask>
<g mask="url(#mask38_3_14)">
<path d="M4000 2210.33C3776.39 2020.06 3609.39 1843.31 3499 1680.08C3388.56 1516.92 3333.33 1365.89 3333.33 1227C3333.33 1018.67 3400.36 852.694 3534.42 729.083C3668.42 605.472 3823.61 543.667 4000 543.667C4176.39 543.667 4331.58 605.472 4465.58 729.083C4599.64 852.694 4666.67 1018.67 4666.67 1227L4841.67 1052L4958.33 1168.67L4583.33 1543.67L4208.33 1168.67L4325 1052L4500 1227C4500 1075.61 4451.72 951.639 4355.17 855.083C4258.67 758.583 4140.28 710.333 4000 710.333C3859.72 710.333 3741.31 758.583 3644.75 855.083C3548.25 951.639 3500 1075.61 3500 1227C3500 1325.61 3540.97 1438.44 3622.92 1565.5C3704.86 1692.61 3830.56 1833.94 4000 1989.5C4027.78 1964.5 4053.47 1940.19 4077.08 1916.58L4147.92 1845.75C4140.97 1831.86 4135.42 1816.92 4131.25 1800.92C4127.08 1784.97 4125 1768.67 4125 1752C4125 1693.67 4145.14 1644.36 4185.42 1604.08C4225.69 1563.81 4275 1543.67 4333.33 1543.67C4391.67 1543.67 4440.97 1563.81 4481.25 1604.08C4521.53 1644.36 4541.67 1693.67 4541.67 1752C4541.67 1810.33 4521.53 1859.64 4481.25 1899.92C4440.97 1940.19 4391.67 1960.33 4333.33 1960.33C4322.22 1960.33 4312.17 1959.64 4303.17 1958.25C4294.11 1956.86 4284.72 1954.78 4275 1952C4234.72 1993.67 4192.03 2036.03 4146.92 2079.08C4101.75 2122.14 4052.78 2165.89 4000 2210.33Z" fill="#DB0914"/>
</g>
<mask id="mask39_3_14" style="mask-type:alpha" maskUnits="userSpaceOnUse" x="500" y="-164" width="1000" height="1000">
<rect x="500" y="-164" width="1000" height="1000" fill="#D9D9D9"/>
</mask>
<g mask="url(#mask39_3_14)">
<path d="M1000 752.666C888.195 657.527 804.695 569.152 749.5 487.541C694.278 405.958 666.667 330.444 666.667 261C666.667 156.833 700.181 73.8469 767.208 12.0413C834.208 -49.7642 911.806 -80.667 1000 -80.667C1088.19 -80.667 1165.79 -49.7642 1232.79 12.0413C1299.82 73.8469 1333.33 156.833 1333.33 261L1420.83 173.5L1479.17 231.833L1291.67 419.333L1104.17 231.833L1162.5 173.5L1250 261C1250 185.305 1225.86 123.319 1177.58 75.0413C1129.33 26.7913 1070.14 2.66634 1000 2.66634C929.861 2.66634 870.653 26.7913 822.375 75.0413C774.125 123.319 750 185.305 750 261C750 310.305 770.486 366.722 811.458 430.25C852.431 493.805 915.278 564.472 1000 642.25C1013.89 629.75 1026.74 617.597 1038.54 605.791L1073.96 570.375C1070.49 563.43 1067.71 555.958 1065.63 547.958C1063.54 539.986 1062.5 531.833 1062.5 523.5C1062.5 494.333 1072.57 469.68 1092.71 449.541C1112.85 429.402 1137.5 419.333 1166.67 419.333C1195.83 419.333 1220.49 429.402 1240.63 449.541C1260.76 469.68 1270.83 494.333 1270.83 523.5C1270.83 552.666 1260.76 577.319 1240.63 597.458C1220.49 617.597 1195.83 627.666 1166.67 627.666C1161.11 627.666 1156.08 627.319 1151.58 626.625C1147.06 625.93 1142.36 624.889 1137.5 623.5C1117.36 644.333 1096.01 665.513 1073.46 687.041C1050.88 708.569 1026.39 730.444 1000 752.666Z" fill="#DB0914"/>
</g>
<mask id="mask40_3_14" style="mask-type:alpha" maskUnits="userSpaceOnUse" x="8500" y="-164" width="1000" height="1000">
<rect x="8500" y="-164" width="1000" height="1000" fill="#D9D9D9"/>
</mask>
<g mask="url(#mask40_3_14)">
<path d="M9000 752.666C8888.19 657.527 8804.69 569.152 8749.5 487.541C8694.28 405.958 8666.67 330.444 8666.67 261C8666.67 156.833 8700.18 73.8469 8767.21 12.0413C8834.21 -49.7642 8911.81 -80.667 9000 -80.667C9088.19 -80.667 9165.79 -49.7642 9232.79 12.0413C9299.82 73.8469 9333.33 156.833 9333.33 261L9420.83 173.5L9479.17 231.833L9291.67 419.333L9104.17 231.833L9162.5 173.5L9250 261C9250 185.305 9225.86 123.319 9177.58 75.0413C9129.33 26.7913 9070.14 2.66634 9000 2.66634C8929.86 2.66634 8870.65 26.7913 8822.38 75.0413C8774.13 123.319 8750 185.305 8750 261C8750 310.305 8770.49 366.722 8811.46 430.25C8852.43 493.805 8915.28 564.472 9000 642.25C9013.89 629.75 9026.74 617.597 9038.54 605.791L9073.96 570.375C9070.49 563.43 9067.71 555.958 9065.63 547.958C9063.54 539.986 9062.5 531.833 9062.5 523.5C9062.5 494.333 9072.57 469.68 9092.71 449.541C9112.85 429.402 9137.5 419.333 9166.67 419.333C9195.83 419.333 9220.49 429.402 9240.63 449.541C9260.76 469.68 9270.83 494.333 9270.83 523.5C9270.83 552.666 9260.76 577.319 9240.63 597.458C9220.49 617.597 9195.83 627.666 9166.67 627.666C9161.11 627.666 9156.08 627.319 9151.58 626.625C9147.06 625.93 9142.36 624.889 9137.5 623.5C9117.36 644.333 9096.01 665.513 9073.46 687.041C9050.88 708.569 9026.39 730.444 9000 752.666Z" fill="#DB0914"/>
</g>
<mask id="mask41_3_14" style="mask-type:alpha" maskUnits="userSpaceOnUse" x="6500" y="-164" width="1000" height="1000">
<rect x="6500" y="-164" width="1000" height="1000" fill="#D9D9D9"/>
</mask>
<g mask="url(#mask41_3_14)">
<path d="M7000 752.666C6888.19 657.527 6804.69 569.152 6749.5 487.541C6694.28 405.958 6666.67 330.444 6666.67 261C6666.67 156.833 6700.18 73.8469 6767.21 12.0413C6834.21 -49.7642 6911.81 -80.667 7000 -80.667C7088.19 -80.667 7165.79 -49.7642 7232.79 12.0413C7299.82 73.8469 7333.33 156.833 7333.33 261L7420.83 173.5L7479.17 231.833L7291.67 419.333L7104.17 231.833L7162.5 173.5L7250 261C7250 185.305 7225.86 123.319 7177.58 75.0413C7129.33 26.7913 7070.14 2.66634 7000 2.66634C6929.86 2.66634 6870.65 26.7913 6822.38 75.0413C6774.13 123.319 6750 185.305 6750 261C6750 310.305 6770.49 366.722 6811.46 430.25C6852.43 493.805 6915.28 564.472 7000 642.25C7013.89 629.75 7026.74 617.597 7038.54 605.791L7073.96 570.375C7070.49 563.43 7067.71 555.958 7065.63 547.958C7063.54 539.986 7062.5 531.833 7062.5 523.5C7062.5 494.333 7072.57 469.68 7092.71 449.541C7112.85 429.402 7137.5 419.333 7166.67 419.333C7195.83 419.333 7220.49 429.402 7240.63 449.541C7260.76 469.68 7270.83 494.333 7270.83 523.5C7270.83 552.666 7260.76 577.319 7240.63 597.458C7220.49 617.597 7195.83 627.666 7166.67 627.666C7161.11 627.666 7156.08 627.319 7151.58 626.625C7147.06 625.93 7142.36 624.889 7137.5 623.5C7117.36 644.333 7096.01 665.513 7073.46 687.041C7050.88 708.569 7026.39 730.444 7000 752.666Z" fill="#DB0914"/>
</g>
<mask id="mask42_3_14" style="mask-type:alpha" maskUnits="userSpaceOnUse" x="4500" y="-164" width="1000" height="1000">
<rect x="4500" y="-164" width="1000" height="1000" fill="#D9D9D9"/>
</mask>
<g mask="url(#mask42_3_14)">
<path d="M5000 752.666C4888.19 657.527 4804.69 569.152 4749.5 487.541C4694.28 405.958 4666.67 330.444 4666.67 261C4666.67 156.833 4700.18 73.8469 4767.21 12.0413C4834.21 -49.7642 4911.81 -80.667 5000 -80.667C5088.19 -80.667 5165.79 -49.7642 5232.79 12.0413C5299.82 73.8469 5333.33 156.833 5333.33 261L5420.83 173.5L5479.17 231.833L5291.67 419.333L5104.17 231.833L5162.5 173.5L5250 261C5250 185.305 5225.86 123.319 5177.58 75.0413C5129.33 26.7913 5070.14 2.66634 5000 2.66634C4929.86 2.66634 4870.65 26.7913 4822.38 75.0413C4774.13 123.319 4750 185.305 4750 261C4750 310.305 4770.49 366.722 4811.46 430.25C4852.43 493.805 4915.28 564.472 5000 642.25C5013.89 629.75 5026.74 617.597 5038.54 605.791L5073.96 570.375C5070.49 563.43 5067.71 555.958 5065.63 547.958C5063.54 539.986 5062.5 531.833 5062.5 523.5C5062.5 494.333 5072.57 469.68 5092.71 449.541C5112.85 429.402 5137.5 419.333 5166.67 419.333C5195.83 419.333 5220.49 429.402 5240.63 449.541C5260.76 469.68 5270.83 494.333 5270.83 523.5C5270.83 552.666 5260.76 577.319 5240.63 597.458C5220.49 617.597 5195.83 627.666 5166.67 627.666C5161.11 627.666 5156.08 627.319 5151.58 626.625C5147.06 625.93 5142.36 624.889 5137.5 623.5C5117.36 644.333 5096.01 665.513 5073.46 687.041C5050.88 708.569 5026.39 730.444 5000 752.666Z" fill="#DB0914"/>
</g>
<mask id="mask43_3_14" style="mask-type:alpha" maskUnits="userSpaceOnUse" x="2500" y="-164" width="1000" height="1000">
<rect x="2500" y="-164" width="1000" height="1000" fill="#D9D9D9"/>
</mask>
<g mask="url(#mask43_3_14)">
<path d="M3000 752.666C2888.19 657.527 2804.69 569.152 2749.5 487.541C2694.28 405.958 2666.67 330.444 2666.67 261C2666.67 156.833 2700.18 73.8469 2767.21 12.0413C2834.21 -49.7642 2911.81 -80.667 3000 -80.667C3088.19 -80.667 3165.79 -49.7642 3232.79 12.0413C3299.82 73.8469 3333.33 156.833 3333.33 261L3420.83 173.5L3479.17 231.833L3291.67 419.333L3104.17 231.833L3162.5 173.5L3250 261C3250 185.305 3225.86 123.319 3177.58 75.0413C3129.33 26.7913 3070.14 2.66634 3000 2.66634C2929.86 2.66634 2870.65 26.7913 2822.38 75.0413C2774.13 123.319 2750 185.305 2750 261C2750 310.305 2770.49 366.722 2811.46 430.25C2852.43 493.805 2915.28 564.472 3000 642.25C3013.89 629.75 3026.74 617.597 3038.54 605.791L3073.96 570.375C3070.49 563.43 3067.71 555.958 3065.63 547.958C3063.54 539.986 3062.5 531.833 3062.5 523.5C3062.5 494.333 3072.57 469.68 3092.71 449.541C3112.85 429.402 3137.5 419.333 3166.67 419.333C3195.83 419.333 3220.49 429.402 3240.63 449.541C3260.76 469.68 3270.83 494.333 3270.83 523.5C3270.83 552.666 3260.76 577.319 3240.63 597.458C3220.49 617.597 3195.83 627.666 3166.67 627.666C3161.11 627.666 3156.08 627.319 3151.58 626.625C3147.06 625.93 3142.36 624.889 3137.5 623.5C3117.36 644.333 3096.01 665.513 3073.46 687.041C3050.88 708.569 3026.39 730.444 3000 752.666Z" fill="#DB0914"/>
</g>
</g>
<defs>
<clipPath id="clip0_3_14">
<rect width="10000" height="10000" fill="white"/>
</clipPath>
</defs>
</svg>
