<svg width="48" height="48" viewBox="0 0 48 48" fill="none" xmlns="http://www.w3.org/2000/svg">
<rect width="48" height="48" rx="24" fill="#E50914" fill-opacity="0.9"/>
<mask id="mask0_1_19" style="mask-type:alpha" maskUnits="userSpaceOnUse" x="12" y="12" width="24" height="24">
<rect x="12" y="12" width="24" height="24" fill="#D9D9D9"/>
</mask>
<g mask="url(#mask0_1_19)">
<path d="M24 34C21.3167 31.7167 19.3127 29.5957 17.988 27.637C16.6627 25.679 16 23.8667 16 22.2C16 19.7 16.8043 17.7083 18.413 16.225C20.021 14.7417 21.8833 14 24 14C26.1167 14 27.979 14.7417 29.587 16.225C31.1957 17.7083 32 19.7 32 22.2L34.1 20.1L35.5 21.5L31 26L26.5 21.5L27.9 20.1L30 22.2C30 20.3833 29.4207 18.8957 28.262 17.737C27.104 16.579 25.6833 16 24 16C22.3167 16 20.8957 16.579 19.737 17.737C18.579 18.8957 18 20.3833 18 22.2C18 23.3833 18.4917 24.7373 19.475 26.262C20.4583 27.7873 21.9667 29.4833 24 31.35C24.3333 31.05 24.6417 30.7583 24.925 30.475L25.775 29.625C25.6917 29.4583 25.625 29.279 25.575 29.087C25.525 28.8957 25.5 28.7 25.5 28.5C25.5 27.8 25.7417 27.2083 26.225 26.725C26.7083 26.2417 27.3 26 28 26C28.7 26 29.2917 26.2417 29.775 26.725C30.2583 27.2083 30.5 27.8 30.5 28.5C30.5 29.2 30.2583 29.7917 29.775 30.275C29.2917 30.7583 28.7 31 28 31C27.8667 31 27.746 30.9917 27.638 30.975C27.5293 30.9583 27.4167 30.9333 27.3 30.9C26.8167 31.4 26.3043 31.9083 25.763 32.425C25.221 32.9417 24.6333 33.4667 24 34Z" fill="white"/>
</g>
</svg>
