<svg width="87" height="88" viewBox="0 0 87 88" fill="none" xmlns="http://www.w3.org/2000/svg">
<path d="M43.9592 37.6767V52.751H68.8914C67.884 59.2167 61.3597 71.7048 43.9592 71.7048C28.9581 71.7048 16.7082 59.2899 16.7082 43.9592C16.7082 28.6284 28.9618 16.2136 43.9592 16.2136C52.4946 16.2136 58.213 19.8366 61.4879 22.987L73.4082 11.4917C65.752 4.34463 55.8245 0 43.9592 0C19.6534 0 0 19.6534 0 43.9592C0 68.2649 19.6534 87.9184 43.9592 87.9184C69.331 87.9184 86.16 70.0819 86.16 44.9629C86.16 42.0763 85.8486 39.871 85.4676 37.6767H43.9592Z" fill="#323232"/>
</svg>
