<svg width="48" height="48" viewBox="0 0 48 48" fill="none" xmlns="http://www.w3.org/2000/svg">
<rect width="48" height="48" rx="24" fill="#E50914"/>
<mask id="mask0_1_9" style="mask-type:alpha" maskUnits="userSpaceOnUse" x="12" y="12" width="24" height="24">
<rect x="12" y="12" width="24" height="24" fill="#D9D9D9"/>
</mask>
<g mask="url(#mask0_1_9)">
<path d="M23 35V33C20.9167 32.7667 19.1293 31.9043 17.638 30.413C16.146 28.921 15.2833 27.1333 15.05 25.05H13.05V23.05H15.05C15.2833 20.9667 16.146 19.1793 17.638 17.688C19.1293 16.196 20.9167 15.3333 23 15.1V13.1H25V15.1C27.0833 15.3333 28.871 16.196 30.363 17.688C31.8543 19.1793 32.7167 20.9667 32.95 23.05H34.95V25.05H32.95C32.7167 27.1333 31.8543 28.921 30.363 30.413C28.871 31.9043 27.0833 32.7667 25 33V35H23ZM24 31.05C25.9333 31.05 27.5833 30.3667 28.95 29C30.3167 27.6333 31 25.9833 31 24.05C31 22.1167 30.3167 20.4667 28.95 19.1C27.5833 17.7333 25.9333 17.05 24 17.05C22.0667 17.05 20.4167 17.7333 19.05 19.1C17.6833 20.4667 17 22.1167 17 24.05C17 25.9833 17.6833 27.6333 19.05 29C20.4167 30.3667 22.0667 31.05 24 31.05Z" fill="white"/>
</g>
</svg>
